SplineFontDB: 3.2
FontName: Untitled1
FullName: Untitled1
FamilyName: Untitled1
Weight: Regular
Copyright: Copyright (c) 2025, Thierry
UComments: "2025-10-24: Created with FontForge (http://fontforge.org)"
Version: 001.000
ItalicAngle: 0
UnderlinePosition: -102.4
UnderlineWidth: 51.2
Ascent: 819
Descent: 205
InvalidEm: 0
LayerCount: 2
Layer: 0 0 "Back" 1
Layer: 1 0 "Fore" 0
XUID: [1021 873 1023869538 7434]
StyleMap: 0x0000
FSType: 0
OS2Version: 0
OS2_WeightWidthSlopeOnly: 0
OS2_UseTypoMetrics: 1
CreationTime: 1761333625
ModificationTime: 1763588054
OS2TypoAscent: 0
OS2TypoAOffset: 1
OS2TypoDescent: 0
OS2TypoDOffset: 1
OS2TypoLinegap: 92
OS2WinAscent: 0
OS2WinAOffset: 1
OS2WinDescent: 0
OS2WinDOffset: 1
HheadAscent: 0
HheadAOffset: 1
HheadDescent: 0
HheadDOffset: 1
MarkAttachClasses: 1
DEI: 91125
Encoding: ISO8859-1
UnicodeInterp: none
NameList: AGL For New Fonts
DisplaySize: -48
AntiAlias: 1
FitToEm: 0
WinInfo: 52 26 7
BeginPrivate: 0
EndPrivate
Grid
-1024 -205.5 m 0
 2048 -205.5 l 1024
EndSplineSet
BeginChars: 256 53

StartChar: A
Encoding: 65 65 0
Width: 1500
VWidth: 2098
Flags: HW
LayerCount: 2
Fore
SplineSet
966.59375 651.319335938 m 0
 966.59375 651.319335938 966.59375 651.319335938 966.114257812 651.181640625 c 0
 783.512695312 598.509765625 769.075195312 530.361328125 781.930664062 154.041015625 c 2
 788.032226562 -24.51953125 l 1
 721.79296875 -24.51953125 l 2
 585.55078125 -24.51953125 592.762695312 124.68359375 502.010742188 70.5234375 c 0
 459.114257812 44.92578125 442.0390625 2.361328125 469.520507812 -77.888671875 c 0
 480.196289062 -109.06640625 485.6328125 -110.985351562 555.58203125 -111.951171875 c 0
 812.80078125 -115.5 760.44140625 -139.719726562 827.510742188 -139.719726562 c 0
 869.733398438 -139.719726562 874.819335938 -130.119140625 877.844726562 -55.2744140625 c 0
 887.14453125 174.91015625 852.6640625 421.526367188 880.671875 404.12890625 c 0
 899.674804688 392.323242188 989.6328125 440.119140625 989.6328125 468.369140625 c 0
 989.6328125 479.288085938 1003.07128906 495.208984375 1021.06640625 502.130859375 c 0
 1059.02636719 516.729492188 1054.91308594 563 966.59375 651.319335938 c 0
EndSplineSet
EndChar

StartChar: B
Encoding: 66 66 1
Width: 1500
VWidth: 2076
Flags: HW
LayerCount: 2
Fore
SplineSet
466.1015625 544.125 m 0
 391.485351562 623.884765625 302.819335938 589.122070312 263.948242188 486.693359375 c 0
 215.926757812 360.154296875 314.750976562 317.046875 530.334960938 335.446289062 c 0
 611.87109375 342.407226562 754.432617188 347.203125 860.03125 347.203125 c 2
 1052.03125 347.203125 l 1
 1057.79296875 273.283203125 l 2
 1061.3828125 227.203125 1052.79589844 187.071289062 1025.43457031 155.80078125 c 0
 984.592773438 109.122070312 988.670898438 46.23046875 1060.5 -20.34375 c 0
 1103.87109375 -60.5390625 1122.22265625 -55.99609375 1174.10839844 23.685546875 c 0
 1216.08496094 88.1484375 1219.66796875 109.122070312 1210.24609375 204.79296875 c 0
 1199.05761719 318.403320312 1203.01464844 359.129882812 1238.24511719 409.625976562 c 0
 1251.62402344 428.802734375 1251.0859375 433.08984375 1237.28125 440.71875 c 0
 1196.88574219 463.04296875 1126.91308594 467.556640625 1020.296875 458.739257812 c 0
 815.311523438 441.782226562 504.83203125 454.192382812 504.83203125 485.223632812 c 0
 504.83203125 492.6875 486.87109375 521.922851562 466.1015625 544.125 c 0
EndSplineSet
EndChar

StartChar: C
Encoding: 67 67 2
Width: 1500
VWidth: 2060
Flags: HW
LayerCount: 2
Fore
SplineSet
774.0390625 733.31640625 m 0
 648.840820312 720.970703125 630.454101562 723.458007812 593.959960938 771.680664062 c 0
 580.842773438 789.017578125 579.041992188 788.576171875 573.557617188 773.08984375 c 0
 554.3671875 718.908203125 550.190429688 650.3359375 559.5703125 505.46875 c 0
 563.540039062 444.149414062 563.936523438 414.176757812 558.76171875 204.109375 c 0
 554.809570312 43.615234375 554.08984375 41.2705078125 535.515625 29.4765625 c 0
 359.995117188 -81.9599609375 455.311523438 -190.291992188 594.639648438 -214.315429688 c 0
 627.721679688 -220.018554688 637.166992188 -216.46484375 643.39453125 -199.248046875 c 0
 660.741210938 -151.288085938 663.747070312 32.095703125 658.44140625 233.696289062 c 2
 648.840820312 598.497070312 l 1
 746.762695312 591.77734375 l 2
 800.522460938 588.087890625 854.713867188 572.93359375 875.7109375 547.559570312 c 0
 904.846679688 512.356445312 974.12109375 525.536132812 1018.30371094 586.977539062 c 2
 1059.72167969 644.576171875 l 1
 982.921875 695.458007812 l 2
 911.53125 742.754882812 896.522460938 745.391601562 774.0390625 733.31640625 c 0
EndSplineSet
EndChar

StartChar: D
Encoding: 68 68 3
Width: 1500
VWidth: 2062
Flags: HW
LayerCount: 2
Fore
SplineSet
439.411132812 539.956054688 m 0
 439.309570312 540.068359375 439.309570312 540.068359375 438.930664062 539.91796875 c 0
 152.043945312 426.98828125 315.180664062 78.396484375 360.583007812 40.31640625 c 0
 370.950195312 31.62109375 381.108398438 34.146484375 401.159179688 60.2724609375 c 0
 435.38671875 104.875 464.270507812 111.295898438 623.09765625 119.61328125 c 0
 752.270507812 126.37890625 879.03515625 136.263671875 976.4140625 150.01171875 c 0
 1004.75 154.01171875 1005.7109375 153.46875 1005.7109375 135.557617188 c 0
 1005.7109375 25.205078125 1042.19140625 8.423828125 1137.30957031 33.9638671875 c 0
 1197.7109375 50.1826171875 1215.30957031 65.625 1223.76269531 108.361328125 c 0
 1241.89453125 200.030273438 1180.4296875 227.631835938 960.16015625 223.061523438 c 0
 708.375 217.837890625 772.83984375 181.444335938 497.0390625 179.6640625 c 0
 421.071289062 179.174804688 410.510742188 181.901367188 410.510742188 212.1328125 c 0
 410.510742188 281.484375 354.9375 292.190429688 388.385742188 311.953125 c 0
 400.91015625 319.354492188 410.510742188 318.91796875 410.510742188 311.463867188 c 0
 410.510742188 291.595703125 478.684570312 386.467773438 492.178710938 423.70703125 c 0
 501.640625 449.827148438 494.75 476.70703125 439.411132812 539.956054688 c 0
EndSplineSet
EndChar

StartChar: E
Encoding: 69 69 4
Width: 1500
VWidth: 2006
Flags: HW
LayerCount: 2
Fore
SplineSet
939.83203125 887.364257812 m 9
 911.032226562 335.364257812 l 17
 862.671875 313.868164062 874.006835938 260.434570312 896.6328125 200.963867188 c 9
 896.6328125 200.963867188 896.671875 101.471679688 890.049804688 112.821289062 c 0
 878.758789062 132.166015625 810.506835938 -39.9384765625 863.032226562 -91.8349609375 c 9
 867.83203125 -159.036132812 l 1
 771.836914062 -171.354492188 675.836914062 -170.883789062 579.83203125 -163.834960938 c 1
 533.717773438 -79.3857421875 452.475585938 -93.9443359375 368.6328125 -115.834960938 c 1
 261.76953125 -226.213867188 333.073242188 -239.654296875 330.233398438 -293.435546875 c 1
 357.131835938 -354.861328125 479.032226562 -307.834960938 527.032226562 -264.635742188 c 9
 767.032226562 -269.435546875 l 1
 849.928710938 -280.521484375 951.924804688 -330.241210938 949.432617188 -168.635742188 c 1
 976.06640625 -104.819335938 1041.38671875 -77.0107421875 992.6328125 56.9638671875 c 9
 973.432617188 181.763671875 l 17
 1069.79296875 218.771484375 1020.3515625 288.918945312 1011.83203125 349.763671875 c 9
 1002.23339844 695.364257812 l 17
 1211.8125 703.686523438 1190.33496094 789.369140625 1189.43261719 868.165039062 c 1
 1163.13769531 903.852539062 1135.35058594 936.392578125 1103.03222656 959.364257812 c 1
 1048.63378906 976.961914062 994.233398438 952.961914062 939.83203125 887.364257812 c 9
575.032226562 143.364257812 m 1
 626.234375 123.901367188 677.43359375 98.6591796875 728.6328125 148.165039062 c 1
 775.116210938 203.647460938 777.260742188 267.099609375 752.6328125 335.364257812 c 1
 694.979492188 421.787109375 603.608398438 392.650390625 522.233398438 397.763671875 c 1
 486.8203125 277.680664062 459.45703125 162.951171875 575.032226562 143.364257812 c 1
EndSplineSet
EndChar

StartChar: F
Encoding: 70 70 5
Width: 1500
VWidth: 2051
Flags: HW
LayerCount: 2
Fore
SplineSet
781.2890625 234.80078125 m 5
 826.08984375 206.81640625 870.887695312 239.76171875 915.688476562 254 c 1
 958.444335938 289.08203125 986.768554688 348.596679688 1006.88964844 422 c 1
 961.180664062 439.680664062 946.844726562 405.6953125 925.2890625 383.600585938 c 1
 910.78125 430.98828125 879.7109375 431.984375 853.2890625 446 c 1
 815.4140625 409.171875 779.616210938 370.66015625 757.2890625 321.19921875 c 5
 746.42578125 243.9140625 769.256835938 253.235351562 781.2890625 234.80078125 c 5
363.688476562 585.19921875 m 1
 301.2890625 609.19921875 243.688476562 566 243.688476562 566 c 1
 200.559570312 527.500976562 240.1875 506.328125 258.008789062 467.16796875 c 0
 286.233398438 405.16796875 360.92578125 413.46875 430.889648438 412.399414062 c 9
 723.688476562 513.19921875 l 17
 793.836914062 494.079101562 866.454101562 483.526367188 949.2890625 508.399414062 c 1
 1018.08984375 519.96875 1086.88769531 520.28125 1155.68847656 522.80078125 c 1
 1151.80957031 468.3984375 1106.85644531 414 1150.88964844 359.600585938 c 9
 1160.48925781 311.600585938 l 17
 1125.0546875 273.19921875 1148.65332031 234.80078125 1150.88964844 196.399414062 c 10
 1160.48925781 71.6005859375 l 1
 1102.88964844 71.6005859375 1098.46484375 126 1074.08984375 162.80078125 c 1
 982.889648438 158 937.520507812 145.140625 910.889648438 62 c 1
 921.799804688 20.5654296875 967.844726562 14.2900390625 1016.48925781 -10 c 9
 1232.48925781 -48.3994140625 l 1
 1222.88964844 210.80078125 l 1
 1261.28515625 239.600585938 1274.0859375 274.80078125 1261.2890625 316.399414062 c 9
 1256.48925781 354.80078125 l 17
 1274.0703125 393.936523438 1293.07910156 432.79296875 1246.88964844 484.399414062 c 9
 1227.68847656 628.399414062 l 25
 1165.2890625 594.80078125 l 9
 1126.88964844 590 l 17
 1065.52734375 624.46484375 1009.265625 642.432617188 973.2890625 594.80078125 c 1
 926.890625 543.965820312 880.48828125 573.43359375 834.08984375 585.19921875 c 1
 766.13671875 607.0703125 712.1015625 589.077148438 656.489257812 575.600585938 c 9
 459.688476562 503.600585938 l 25
 363.688476562 585.19921875 l 1
EndSplineSet
EndChar

StartChar: G
Encoding: 71 71 6
Width: 1500
VWidth: 2078
Flags: HW
LayerCount: 2
Fore
SplineSet
645.715820312 646.165039062 m 0
 627.2109375 675.885742188 450.088867188 683.600585938 517.03125 559.275390625 c 0
 573 455.327148438 550.600585938 272.362304688 577.002929688 224.587890625 c 0
 597.75390625 187.038085938 602.21875 40.9150390625 543.40234375 58.8857421875 c 0
 521.098632812 65.7021484375 492.041992188 53.7607421875 457.6796875 15.6845703125 c 0
 438.360351562 -5.7236328125 438.041992188 -12.4814453125 450.6953125 -33.4990234375 c 0
 505.084960938 -123.838867188 596.0546875 -140.280273438 622.12890625 -108.956054688 c 0
 673.609375 -47.111328125 673.301757812 442.560546875 630.208007812 521.318359375 c 0
 622.875 534.719726562 617.37890625 558.927734375 623.09765625 564.649414062 c 0
 630.229492188 571.780273438 682.448242188 577.823242188 760.696289062 579.259765625 c 0
 834.12890625 580.607421875 845.75390625 576.344726562 852.540039062 547.955078125 c 0
 861.625 509.978515625 885.969726562 487.534179688 925.641601562 477.803710938 c 0
 958.796875 469.670898438 975.323242188 477.119140625 1014.11230469 525.145507812 c 0
 1071.46972656 596.161132812 1070.85644531 623.852539062 1022.19824219 641.948242188 c 0
 946.448242188 670.120117188 767.09765625 670.263671875 698.282226562 644.458984375 c 0
 673.80859375 635.280273438 652.225585938 635.711914062 645.715820312 646.165039062 c 0
810.328125 316.701171875 m 0
 777.489257812 325.768554688 770.868164062 325.146484375 758.223632812 292.638671875 c 0
 747.088867188 263.999023438 741.7890625 263.099609375 731.305664062 279.749023438 c 0
 720.067382812 297.599609375 711.28515625 300.836914062 709.799804688 285.986328125 c 0
 709.22265625 280.213867188 705.45703125 256.319335938 704.397460938 250.741210938 c 0
 695.071289062 201.564453125 742.928710938 140.318359375 783.475585938 125.752929688 c 0
 827.409179688 109.970703125 885.008789062 141.001953125 885.008789062 172.756835938 c 0
 885.008789062 188.095703125 898.448242188 205.837890625 920.532226562 214.377929688 c 0
 967.1953125 232.416992188 944.528320312 279.646484375 810.328125 316.701171875 c 0
EndSplineSet
EndChar

StartChar: H
Encoding: 72 72 7
Width: 1500
VWidth: 2111
Flags: HW
LayerCount: 2
Fore
SplineSet
1292.83691406 -145.938476562 m 0
 1321.85546875 -145.938476562 1318.26660156 -107.5390625 1367.13964844 -107.5390625 c 0
 1422.859375 -107.5390625 1442.35253906 -57.6201171875 1416.7890625 40.0732421875 c 0
 1403.49316406 90.8857421875 1392.05566406 100.93359375 1309.19628906 127.098632812 c 0
 1190.45605469 164.596679688 1135.39453125 168.765625 1119.66796875 154.66796875 c 0
 1079.15136719 118.342773438 746.227539062 175.284179688 698.58984375 134.973632812 c 0
 686.415039062 124.672851562 661.497070312 125.69921875 626.813476562 138.399414062 c 0
 488.356445312 189.10546875 348.475585938 111.266601562 300.77734375 128.7578125 c 0
 246.770507812 148.559570312 233.200195312 319.08984375 210.12890625 373.471679688 c 0
 199.403320312 398.754882812 207.416992188 409.811523438 240.182617188 417.745117188 c 0
 318.77734375 436.770507812 373.389648438 502.43359375 363.997070312 600.516601562 c 0
 361.37109375 627.9609375 356.215820312 632.0078125 303.481445312 635.821289062 c 0
 217.977539062 642.000976562 193.120117188 634.13671875 153.51953125 592.178710938 c 0
 94.7412109375 529.899414062 58.19921875 450.481445312 77.16015625 427.272460938 c 0
 101.5 397.477539062 132.0625 155.5 125.047851562 91.140625 c 0
 116.995117188 17.26171875 182.608398438 -69.1396484375 228.840820312 -69.1396484375 c 0
 251.364257812 -69.1396484375 303.416992188 -48.6328125 375.534179688 -10.1240234375 c 0
 458.750976562 34.3125 480.055664062 35.9833984375 735.5625 28.92578125 c 0
 1119.41699219 18.3232421875 1157.81640625 12.1640625 1157.81640625 -12.4453125 c 0
 1157.81640625 -49.9384765625 1246.95800781 -145.938476562 1292.83691406 -145.938476562 c 0
832.321289062 599.1796875 m 0
 768.668945312 651.598632812 708.536132812 649.407226562 661.828125 609.247070312 c 0
 598.192382812 554.532226562 555.84375 426.22265625 568.64453125 383.809570312 c 0
 582.15234375 339.067382812 685.497070312 295.661132812 727.078125 295.661132812 c 0
 788.296875 295.661132812 844.66796875 389.7421875 861.639648438 510.247070312 c 0
 868.1953125 556.78125 864.055664062 573.043945312 832.321289062 599.1796875 c 0
EndSplineSet
EndChar

StartChar: I
Encoding: 73 73 8
Width: 1500
VWidth: 2084
Flags: HW
LayerCount: 2
Fore
SplineSet
705.703125 445.2578125 m 0
 721.6875 506.8984375 888.5390625 556.073242188 888.5390625 525.467773438 c 0
 888.5390625 510.658203125 927.60546875 460.659179688 962.969726562 422.423828125 c 0
 1126.14550781 245.987304688 1078.62011719 132.147460938 825.178710938 48.6396484375 c 2
 694.620117188 5.6201171875 l 1
 626.458007812 59.3779296875 l 2
 588.05859375 89.6669921875 544.467773438 117.749023438 524.036132812 124.560546875 c 0
 456.764648438 146.990234375 418.069335938 306.760742188 558.454101562 429.98828125 c 0
 583.258789062 451.76171875 591.7109375 453.1328125 603.90234375 436.436523438 c 0
 637.596679688 390.291015625 696.254882812 408.819335938 705.703125 445.2578125 c 0
1182.80859375 330.671875 m 0
 1148.6484375 518.034179688 934.215820312 726.576171875 769.856445312 654.815429688 c 0
 742.235351562 642.756835938 704.219726562 634.69140625 684.36328125 634.044921875 c 0
 571.739257812 630.376953125 312.5390625 402.302734375 312.5390625 304.592773438 c 0
 312.5390625 287.858398438 320.141601562 254.467773438 342.401367188 212.919921875 c 0
 369.110351562 163.05859375 427.739257812 25.970703125 427.739257812 5.458984375 c 0
 427.739257812 -28.12109375 584.856445312 -172.779296875 723.508789062 -129.74609375 c 0
 738.778320312 -125.005859375 786.547851562 -112.525390625 802.362304688 -109.244140625 c 0
 882.940429688 -92.5205078125 939.858398438 -14.140625 1037.89160156 50.1435546875 c 0
 1158.69628906 129.358398438 1202.8671875 220.659179688 1182.80859375 330.671875 c 0
EndSplineSet
EndChar

StartChar: J
Encoding: 74 74 9
Width: 1500
VWidth: 2104
Flags: HW
LayerCount: 2
Fore
SplineSet
327.600585938 466.606445312 m 1
 327.600585938 412.2109375 302 377.008789062 250.80078125 361.005859375 c 1
 202.80078125 364.2109375 174 386.609375 164.399414062 428.20703125 c 10
 145.19921875 509.805664062 l 21
 147.471679688 527.21875 195.348632812 591.150390625 260.399414062 601.005859375 c 5
 500.399414062 586.606445312 l 1
 721.666992188 249.036132812 609.140625 263.801757812 663.600585938 87.40625 c 1
 736.50390625 85.1962890625 792.442382812 123.044921875 841.19921875 125.805664062 c 1
 918.178710938 291.6640625 1013.20703125 442.919921875 1153.19921875 557.805664062 c 1
 1191.9140625 556.76171875 1223.07421875 577.770507812 1273.19921875 543.40625 c 1
 1371.9140625 536.640625 1335.4375 491.24609375 1354.80078125 461.805664062 c 1
 1344.80078125 413.1640625 1330.54394531 367.12109375 1258.80078125 356.20703125 c 1
 1223.78515625 385.42578125 1170.7109375 399.595703125 1158 447.40625 c 1
 1073.07128906 405.734375 1037.59765625 244.258789062 980.399414062 135.40625 c 1
 1007.60449219 103.407226562 1025.203125 71.40625 1033.19921875 39.40625 c 1
 993.999023438 -86.755859375 987.776367188 -24.951171875 966 -51.79296875 c 1
 966 -88.7802734375 886.526367188 -86.7265625 870.609375 -61.59765625 c 0
 859.8671875 -44.638671875 799.766601562 -5.9599609375 807.600585938 5.8056640625 c 1
 753.171875 -48.880859375 715.8046875 1.84765625 673.19921875 20.20703125 c 1
 654.301757812 -30.787109375 632.0859375 -48.6396484375 616.772460938 -67.9560546875 c 0
 577.19921875 -117.866210938 543.600585938 -94.712890625 510 -80.59375 c 1
 493.54296875 47.73828125 525.588867188 175.380859375 475.6328125 350.801757812 c 0
 472.204101562 362.845703125 456.711914062 424.263671875 418.80078125 471.40625 c 1
 373.53515625 488.1953125 347.41796875 481.296875 327.600585938 466.606445312 c 1
EndSplineSet
EndChar

StartChar: K
Encoding: 75 75 10
Width: 1500
VWidth: 2028
Flags: HW
LayerCount: 2
Fore
SplineSet
922.62890625 728.876953125 m 0
 830.709960938 792.966796875 765.52734375 767.375976562 765.52734375 632.448242188 c 0
 765.52734375 592.334960938 771.288085938 585.975585938 808.584960938 580.021484375 c 0
 922.965820312 561.758789062 984.4375 500.771484375 973.1015625 441.971679688 c 0
 967.444335938 412.620117188 975.793945312 361.294921875 1000.12792969 303.400390625 c 0
 1017 263.258789062 1015.43652344 251.856445312 984.40234375 192.772460938 c 0
 932.7421875 94.4150390625 906.038085938 66.9248046875 865.122070312 62.0146484375 c 0
 844.7734375 59.572265625 801.046875 48.3154296875 781.5703125 40.677734375 c 0
 646.546875 -12.2783203125 487.930664062 208.848632812 486.465820312 294.829101562 c 0
 485.381835938 358.415039062 399.140625 449.741210938 352.530273438 432.260742188 c 0
 333.87109375 425.264648438 331.331054688 404.495117188 345.99609375 233.091796875 c 0
 359.584960938 74.255859375 364.28125 62.6943359375 421.854492188 33.5537109375 c 0
 483.288085938 2.4580078125 533.610351562 -33.4716796875 561.31640625 -63.8798828125 c 0
 647.127929688 -158.065429688 839.98046875 -184.571289062 926.21484375 -97.5556640625 c 0
 942.665039062 -80.9541015625 990.166992188 -41.068359375 1015.64746094 -22.986328125 c 0
 1194.8125 104.162109375 1180.06152344 399.013671875 1131.64746094 471.635742188 c 0
 1117.52734375 492.814453125 1107.76171875 530.654296875 1113.04199219 551.120117188 c 0
 1124.75390625 596.495117188 1053.52734375 692.495117188 1006.24609375 692.495117188 c 0
 989.49609375 692.495117188 957.52734375 704.544921875 922.62890625 728.876953125 c 0
EndSplineSet
EndChar

StartChar: L
Encoding: 76 76 11
Width: 1500
VWidth: 2037
Flags: HW
LayerCount: 2
Fore
SplineSet
642.810546875 853.508789062 m 0
 647.466796875 927.46875 614.791015625 945.168945312 528.120117188 858.500976562 c 0
 492.139648438 822.517578125 487.693359375 809.387695312 498.810546875 771.3515625 c 0
 530.073242188 664.396484375 599.009765625 652.590820312 599.009765625 614.176757812 c 0
 599.009765625 565.353515625 710.370117188 516.438476562 919.689453125 483.673828125 c 0
 1011.81054688 469.255859375 1040.609375 458.6484375 1040.609375 423.278320312 c 0
 1040.609375 377.290039062 1089.29589844 381.357421875 1065.84570312 351.392578125 c 0
 1053.86914062 336.087890625 1040.95507812 304.426757812 1034.37304688 277.60546875 c 0
 1023.29492188 232.426757812 1006.04882812 221.66015625 832.561523438 186.7734375 c 0
 695.009765625 159.111328125 662.384765625 147.962890625 617.694335938 103.271484375 c 0
 585.5703125 71.146484375 551.436523438 48.107421875 536.244140625 48.107421875 c 0
 489.833984375 48.107421875 291.810546875 -166.931640625 291.810546875 -233.400390625 c 0
 291.810546875 -266.772460938 341.729492188 -316.693359375 383.451171875 -316.693359375 c 0
 437.729492188 -316.693359375 522.209960938 -232.212890625 522.209960938 -176.6953125 c 0
 522.209960938 -79.095703125 783.330078125 62.087890625 935.780273438 38.861328125 c 0
 979.170898438 32.251953125 1028.18164062 10.1298828125 1054.00683594 -20.001953125 c 0
 1087.78710938 -59.412109375 1139.1875 -59.412109375 1159.78320312 -26.7255859375 c 0
 1197.26074219 32.7470703125 1189.66015625 290.735351562 1153.55761719 326.840820312 c 0
 1125.07617188 355.32421875 1219.4140625 416.786132812 1207.06835938 573.205078125 c 0
 1204.26464844 608.747070312 1198.65527344 614.961914062 1166.5390625 617.794921875 c 0
 1042.2734375 628.759765625 886.7421875 556.810546875 861.014648438 593.258789062 c 0
 837.265625 626.90625 631.241210938 669.696289062 642.810546875 853.508789062 c 0
EndSplineSet
EndChar

StartChar: M
Encoding: 77 77 12
Width: 1500
VWidth: 2037
Flags: HW
LayerCount: 2
Fore
SplineSet
881.393554688 67.494140625 m 0
 814.165039062 67.494140625 821.30859375 9.89453125 706.807617188 9.89453125 c 0
 659.768554688 9.89453125 632.0703125 0.1728515625 622.737304688 -24.3544921875 c 0
 594.776367188 -97.8544921875 795.125976562 -137.752929688 902.979492188 -62.255859375 c 0
 948.7265625 -30.2333984375 1020.53515625 52.439453125 1021.30859375 85.7265625 c 0
 1021.96484375 113.868164062 1072.07421875 120.451171875 1090.12207031 214.864257812 c 0
 1096.82128906 249.89453125 1109.95019531 283.38671875 1125.90234375 293.201171875 c 0
 1156.15136719 311.81640625 1136.88769531 391.321289062 1078.07519531 437.434570312 c 0
 1011.36035156 489.744140625 994.422851562 585.89453125 959.797851562 585.89453125 c 0
 933.086914062 585.89453125 902.012695312 643.114257812 840.647460938 644.508789062 c 0
 762.905273438 646.274414062 719.859375 737.95703125 688.926757812 687.008789062 c 0
 678.829101562 670.375 666.48828125 667.369140625 654.518554688 674.654296875 c 0
 593.1171875 712.029296875 417.989257812 541.732421875 373.661132812 414.408203125 c 0
 336.442382812 307.494140625 376.825195312 188.869140625 471.918945312 165.09765625 c 0
 503.944335938 157.090820312 512.208007812 167.333007812 498.934570312 206.8046875 c 0
 466.3671875 303.654296875 491.671875 438.055664062 559.293945312 532.9140625 c 0
 579.473632812 561.219726562 587.768554688 564.044921875 622.74609375 559.615234375 c 0
 890.196289062 525.736328125 957.051757812 290.646484375 923.512695312 268.286132812 c 0
 912.249023438 260.774414062 905.821289062 224.93359375 909.461914062 135.723632812 c 0
 911.85546875 77.0947265625 908.840820312 67.494140625 881.393554688 67.494140625 c 0
EndSplineSet
EndChar

StartChar: N
Encoding: 78 78 13
Width: 1500
VWidth: 2004
Flags: HW
LayerCount: 2
Fore
SplineSet
835.125 506.2734375 m 0
 602.282226562 384.7890625 700.76171875 553.3359375 617.088867188 553.3359375 c 0
 565.78515625 553.3359375 526.190429688 489.975585938 538.28125 448.123046875 c 0
 553.924804688 393.975585938 490.706054688 277.331054688 426.34375 265.58203125 c 0
 385.0078125 258.038085938 340.846679688 206.6171875 340.846679688 117.475585938 c 0
 340.846679688 92.53515625 344.303710938 89.5546875 366.829101562 95.1484375 c 0
 479.0859375 123.0234375 647.95703125 260.315429688 665.02734375 341.95703125 c 0
 669.68359375 364.228515625 681.647460938 371.557617188 752.686523438 375.736328125 c 2
 834.28515625 380.53515625 l 1
 859.24609375 274.936523438 l 2
 872.862304688 217.3359375 899.915039062 155.23828125 921.70703125 135.682617188 c 0
 959.0859375 102.135742188 1105.10449219 82.359375 1145.53125 109.3125 c 0
 1182.57421875 134.0078125 1139.56640625 203.666992188 1070.73339844 220.7265625 c 0
 1045.48535156 226.984375 1002.8203125 245.49609375 974.1328125 264.206054688 c 0
 939.278320312 286.936523438 934.600585938 303.736328125 937.749023438 393.155273438 c 0
 943.049804688 543.736328125 928.506835938 554.995117188 835.125 506.2734375 c 0
EndSplineSet
EndChar

StartChar: O
Encoding: 79 79 14
Width: 1500
VWidth: 2088
Flags: HW
LayerCount: 2
Fore
SplineSet
1040.91113281 541.329101562 m 0
 1001.63574219 541.329101562 954.983398438 627.485351562 835.89453125 682.44921875 c 0
 731.096679688 730.819335938 635.864257812 724.727539062 545.547851562 639.8515625 c 0
 536.577148438 631.420898438 485.336914062 584.09375 467.817382812 568.165039062 c 0
 375.17578125 483.948242188 361.95703125 451.08984375 350.288085938 339.877929688 c 0
 323.19140625 81.6376953125 381.225585938 132.608398438 385.141601562 29.8505859375 c 0
 388.698242188 -63.4697265625 440.723632812 -130.670898438 490.233398438 -130.670898438 c 0
 512.776367188 -130.670898438 550.616210938 -144.6015625 578.348632812 -162.891601562 c 0
 642.776367188 -205.38671875 709.9765625 -190.190429688 709.9765625 -123.803710938 c 0
 709.9765625 -103.790039062 716.084960938 -73.3779296875 727.268554688 -56.3564453125 c 0
 744.421875 -30.25 721.49609375 -15.4697265625 673.831054688 -15.4697265625 c 0
 573.65625 -15.4697265625 509.62109375 49.8095703125 511.620117188 154.569335938 c 0
 513.737304688 265.545898438 439.784179688 229.821289062 524.295898438 413.864257812 c 0
 553.053710938 476.4921875 564.057617188 485.94140625 689.709960938 522.1484375 c 0
 775.256835938 546.796875 786.309570312 547.071289062 819.99609375 527.729492188 c 0
 915.415039062 472.932617188 986.87109375 378.76953125 999.848632812 302.487304688 c 0
 1014.41503906 216.848632812 1103.31640625 104.969726562 1142.25 129.52734375 c 0
 1157.96386719 139.440429688 1161.21875 168.848632812 1151.10253906 235.317382812 c 0
 1144.27050781 280.209960938 1136.7265625 352.959960938 1135.65527344 377.639648438 c 0
 1132.04296875 460.690429688 1078.91015625 541.329101562 1040.91113281 541.329101562 c 0
EndSplineSet
EndChar

StartChar: P
Encoding: 80 80 15
Width: 1500
VWidth: 2083
Flags: HW
LayerCount: 2
Fore
SplineSet
1021.2890625 780.668945312 m 25
 867.688476562 588.668945312 l 17
 746.469726562 573.125976562 633.6796875 532.298828125 488.48828125 588.668945312 c 1
 465.953125 584.264648438 442.860351562 581.537109375 445.2890625 502.268554688 c 9
 498.088867188 444.668945312 l 1
 523.629882812 335.869140625 503.7890625 198.267578125 498.088867188 89.4697265625 c 9
 536.48828125 75.068359375 l 1
 598.887695312 142.268554688 l 1
 780.9296875 148.795898438 857.233398438 38.1455078125 954.088867188 -49.7314453125 c 9
 944.48828125 -217.731445312 l 1
 976.958007812 -234.090820312 1005.578125 -271.303710938 1050.08886719 -222.530273438 c 9
 1054.88769531 -25.7314453125 l 17
 1001.1796875 72.673828125 859.51171875 95.2529296875 723.688476562 214.268554688 c 1
 681.40234375 197.809570312 642.827148438 192.481445312 613.2890625 214.268554688 c 1
 613.286132812 277.076171875 613.284179688 340.502929688 613.2890625 415.869140625 c 1
 703.846679688 391.090820312 756.838867188 448.268554688 836.21875 476.232421875 c 0
 916.975585938 504.677734375 959.754882812 562.392578125 1016.48828125 612.668945312 c 9
 1021.2890625 780.668945312 l 25
EndSplineSet
EndChar

StartChar: Q
Encoding: 81 81 16
Width: 1500
VWidth: 2060
Flags: HW
LayerCount: 2
Fore
SplineSet
887.071289062 679.46484375 m 0
 827.91015625 738.623046875 701.168945312 658.879882812 636.946289062 674.427734375 c 0
 584.528320312 687.1171875 484.688476562 637.72265625 484.688476562 606.890625 c 0
 484.688476562 590.329101562 455.889648438 544.25 409.5703125 488.66796875 c 0
 343.403320312 409.265625 317.078125 354.168945312 300.985351562 249.102539062 c 0
 290.61328125 181.368164062 295.295898438 163.403320312 330.80859375 127.891601562 c 0
 358.359375 100.340820312 403.735351562 46.96875 430.74609375 11.19921875 c 0
 503.973632812 -85.7763671875 561.489257812 -112.561523438 740.305664062 -130.342773438 c 0
 841.80859375 -140.4375 877.7109375 -137.21875 911.420898438 -115.205078125 c 0
 941.68359375 -95.44140625 987.727539062 -81.6708984375 1020.78222656 -81.6708984375 c 0
 1159.734375 -81.6708984375 1200.27832031 161.704101562 1203.73828125 234.344726562 c 0
 1204.62890625 253.05078125 1202.76953125 254.329101562 1120.31347656 254.329101562 c 0
 1033.80859375 254.329101562 1031.75390625 252.921875 1029.56640625 230.45703125 c 0
 1017.49902344 106.490234375 952.881835938 43.3994140625 881.461914062 50.837890625 c 0
 851.409179688 53.9697265625 802.78125 46.671875 765.76171875 31.19140625 c 0
 729.012695312 15.8251953125 706.450195312 19.23828125 621.932617188 59.3173828125 c 0
 541.3828125 97.51953125 532.375 108.41015625 502.62890625 210.66796875 c 0
 476.520507812 300.41015625 476.265625 316.74609375 506.391601562 363.611328125 c 0
 559.5703125 446.329101562 632.8359375 508.162109375 697.793945312 521.711914062 c 0
 766.928710938 536.1328125 907.08984375 618.090820312 907.08984375 645.798828125 c 0
 907.08984375 653.05078125 897.489257812 669.048828125 887.071289062 679.46484375 c 0
EndSplineSet
EndChar

StartChar: R
Encoding: 82 82 17
Width: 1500
VWidth: 2055
Flags: HW
LayerCount: 2
Fore
SplineSet
740.97265625 438.251953125 m 1
 646.567382812 390.259765625 587.3671875 329.4609375 563.372070312 255.852539062 c 1
 585.998046875 209.454101562 592.630859375 163.051757812 644.97265625 116.653320312 c 1
 714.817382812 112.666015625 769.73046875 141.673828125 827.372070312 164.653320312 c 1
 837.951171875 213.2578125 846.306640625 223.844726562 860.97265625 342.251953125 c 9
 817.771484375 409.453125 l 25
 779.372070312 332.653320312 l 25
 740.97265625 438.251953125 l 1
1057.77148438 606.251953125 m 17
 979.223632812 702.251953125 873.016601562 717.107421875 769.771484375 740.653320312 c 1
 639.8515625 676.625976562 522.38671875 564.731445312 404.97265625 452.653320312 c 1
 408.864257812 407.193359375 404.61328125 370.165039062 419.372070312 313.453125 c 1
 366.571289062 255.852539062 l 17
 363.376953125 182.251953125 348.48828125 108.653320312 385.771484375 35.052734375 c 1
 449.017578125 -76.40625 513.313476562 -186.408203125 664.171875 -176.147460938 c 1
 745.326171875 -193.061523438 825.06640625 -219.64453125 918.571289062 -152.147460938 c 1
 918.571289062 -152.147460938 1037.56835938 -21.7646484375 1033.01953125 -11.1982421875 c 0
 1028.99316406 -1.8427734375 1115.37207031 116.653320312 1122.046875 125.235351562 c 0
 1158.14257812 171.641601562 1144.171875 371.052734375 1158.57128906 327.852539062 c 1
 1110.57128906 409.453125 l 25
 1057.77148438 606.251953125 l 17
476.97265625 654.251953125 m 9
 476.97265625 654.251953125 831.149414062 830.165039062 888.3125 844.985351562 c 0
 985.771484375 870.251953125 1206.57128906 683.052734375 1237.98535156 569.970703125 c 0
 1260.31835938 489.568359375 1206.57128906 375.852539062 1216.34960938 375.852539062 c 8
 1225.77148438 375.852539062 1230.57128906 270.251953125 1230.57128906 270.251953125 c 9
 1240.171875 179.052734375 l 2
 1259.37207031 -12.947265625 1181.22851562 -121.880859375 1112.91992188 -170.49609375 c 0
 980.8125 -264.521484375 651.665039062 -299.361328125 640.171875 -252.947265625 c 1
 495.688476562 -219.952148438 370.493164062 -151.983398438 289.771484375 -3.3466796875 c 1
 238.150390625 -12.0263671875 256.9921875 333.3046875 277.5 375.813476562 c 0
 289.75390625 401.208984375 467.861328125 661.036132812 476.97265625 654.251953125 c 9
EndSplineSet
EndChar

StartChar: S
Encoding: 83 83 18
Width: 1500
VWidth: 2060
Flags: HW
LayerCount: 2
Fore
SplineSet
278.245117188 633.637695312 m 5
 228.26171875 626.102539062 225.1171875 606.323242188 225.4453125 585.637695312 c 5
 311.37109375 500.836914062 383.77734375 416.037109375 436.64453125 331.237304688 c 5
 425.6953125 229.615234375 438.934570312 114.047851562 407.844726562 24.037109375 c 5
 405.203125 -3.8486328125 431.83984375 -9.9130859375 460.64453125 -14.3623046875 c 13
 518.245117188 9.6376953125 l 5
 595.6171875 -31.3291015625 688.38671875 -29.9169921875 782.245117188 -9.5615234375 c 13
 849.4453125 -86.3623046875 l 21
 853.877929688 -105.440429688 902.610351562 -110.819335938 912.100585938 -70.8857421875 c 4
 919.1015625 -41.4208984375 916.483398438 62.134765625 911.844726562 48.037109375 c 5
 993.4453125 307.237304688 1087.04589844 576.037109375 1226.26855469 585.197265625 c 12
 1300.25097656 590.064453125 1281.06152344 662.969726562 1223.72753906 666.446289062 c 20
 1171.04589844 669.637695312 1082.24511719 614.438476562 1017.4453125 564.037109375 c 13
 801.4453125 28.837890625 l 29
 739.045898438 31.2373046875 l 29
 739.045898438 31.2373046875 724.64453125 228.037109375 708.958007812 288.166015625 c 4
 687.967773438 368.626953125 624.407226562 358.717773438 611.938476562 289.251953125 c 4
 602.245117188 235.237304688 609.4453125 67.2373046875 609.4453125 67.2373046875 c 21
 578.762695312 53.0927734375 550.6328125 45.2470703125 532.64453125 62.4384765625 c 13
 542.245117188 172.837890625 l 22
 548.5546875 236.749023438 536.4765625 289.653320312 489.4453125 321.637695312 c 5
 445.895507812 447.900390625 397.60546875 570.232421875 278.245117188 633.637695312 c 5
EndSplineSet
EndChar

StartChar: T
Encoding: 84 84 19
Width: 1500
VWidth: 2048
Flags: HW
LayerCount: 2
Fore
SplineSet
872.563476562 803.25390625 m 0
 862.5390625 819.1328125 827.602539062 827.327148438 785.520507812 827.327148438 c 0
 735.625 827.327148438 717.581054688 815.807617188 681.817382812 759.393554688 c 0
 615.340820312 654.52734375 630.241210938 619.471679688 746.047851562 639.440429688 c 0
 774.803710938 644.397460938 828.65625 656.001953125 841.547851562 659.9453125 c 0
 900.235351562 677.897460938 1009.19238281 610.366210938 1033.8515625 546.25 c 0
 1043.16015625 522.046875 1063.11035156 500.927734375 1078.39550781 500.927734375 c 0
 1111.31347656 500.927734375 1147.28417969 403.0078125 1147.28417969 335.62890625 c 0
 1147.28417969 232.127929688 1062.40527344 55.703125 969.698242188 -38.427734375 c 0
 914.66015625 -94.314453125 865.043945312 -112.883789062 722.731445312 -118.6953125 c 0
 630.803710938 -122.446289062 608.55859375 -116.451171875 567.23828125 -76.7197265625 c 0
 538.64453125 -49.2265625 508.512695312 -27.62890625 496.747070312 -28.5517578125 c 0
 473.918945312 -30.341796875 417.68359375 55.48828125 417.68359375 109.08984375 c 0
 417.68359375 156.061523438 374.497070312 202.20703125 371.54296875 258.22265625 c 0
 366.782226562 348.46875 264.083007812 289.7265625 264.083007812 214.08203125 c 0
 264.083007812 118.846679688 426.875976562 -197.1640625 484.348632812 -228.067382812 c 0
 527.122070312 -251.067382812 755.399414062 -247.270507812 792.911132812 -223.98828125 c 0
 824.3203125 -204.494140625 974.03125 -208.23046875 1200.05078125 75.361328125 c 0
 1201.04394531 76.6083984375 1201.04394531 76.6083984375 1201.61425781 80.2451171875 c 0
 1244.4140625 353.088867188 1242.90625 381.408203125 1220.31542969 440.552734375 c 0
 1115.80957031 714.170898438 897.6953125 763.45703125 872.563476562 803.25390625 c 0
798.71484375 423.647460938 m 0
 778.64453125 432.80859375 739.391601562 443.327148438 724.8515625 443.327148438 c 0
 677.953125 443.327148438 571.284179688 333.888671875 571.284179688 291.99609375 c 0
 571.284179688 255.572265625 651.922851562 182.315429688 700.450195312 169.670898438 c 0
 759.4453125 154.30078125 870.833007812 202.48828125 889.719726562 251.7578125 c 0
 907.377929688 297.8203125 863.122070312 394.2421875 798.71484375 423.647460938 c 0
EndSplineSet
EndChar

StartChar: U
Encoding: 85 85 20
Width: 1500
VWidth: 2000
Flags: HW
LayerCount: 2
Fore
SplineSet
495.51953125 -145.813476562 m 1
 509.083007812 -194.5078125 529.096679688 -195.219726562 549.586914062 -192.376953125 c 1
 623.30078125 -96.767578125 698.657226562 -14.5830078125 776.390625 48.2138671875 c 1
 878.590820312 49.716796875 991.6875 76.921875 1084.81347656 57.0185546875 c 1
 1112.81347656 57.791015625 1115.59082031 84.9677734375 1116.50097656 114.099609375 c 9
 1085.66894531 168.349609375 l 1
 1116.9140625 250.131835938 1104.22265625 342.041992188 1072.59375 432.721679688 c 9
 1140.64550781 508.772460938 l 17
 1159.04003906 515.494140625 1158.44921875 564.518554688 1117.65917969 569.077148438 c 0
 1087.55957031 572.443359375 985.090820312 557.23828125 999.6484375 554.350585938 c 5
 732.4453125 603.794921875 454.250976562 663.982421875 428.211914062 801.056640625 c 12
 414.375976562 873.897460938 344.350585938 845.9765625 347.879882812 788.6484375 c 16
 351.124023438 735.967773438 416.719726562 654.545898438 474.6328125 596.362304688 c 9
 1032.14160156 447.108398438 l 25
 1037.35546875 384.87890625 l 25
 1037.35546875 384.87890625 843.7734375 346.634765625 786 323.748046875 c 0
 708.69140625 293.119140625 726.26171875 231.237304688 796.729492188 227.315429688 c 0
 851.5234375 224.267578125 1017.39550781 251.859375 1017.39550781 251.859375 c 17
 1035.17089844 223.131835938 1046.3828125 196.163085938 1031.5078125 176.21484375 c 9
 920.760742188 172.307617188 l 18
 856.55859375 170.794921875 805.515625 152.365234375 779.493164062 101.7890625 c 1
 659.469726562 43.1982421875 543.92578125 -19.6220703125 495.51953125 -145.813476562 c 1
EndSplineSet
EndChar

StartChar: V
Encoding: 86 86 21
Width: 1500
VWidth: 2018
Flags: HW
LayerCount: 2
Fore
SplineSet
1295.37890625 188.01953125 m 0
 1271.15234375 779.857421875 787.734375 865.931640625 571.54296875 767.474609375 c 0
 461.4609375 717.341796875 300.180664062 564.49609375 300.180664062 522.42578125 c 0
 300.180664062 507.150390625 278.9140625 473.014648438 248.390625 439.94921875 c 0
 200.522460938 388.091796875 194.219726562 353.975585938 215.428710938 314.3125 c 0
 274.579101562 203.685546875 415.950195312 296.376953125 388.645507812 405.34375 c 0
 378.78515625 444.6953125 394.116210938 469.17578125 464.203125 539.8515625 c 0
 554.053710938 630.456054688 621.01171875 683.151367188 722.12890625 688.717773438 c 0
 776.340820312 691.701171875 838.79296875 681.05078125 943.828125 625.3046875 c 0
 1104.66113281 539.948242188 1160.34082031 457.65625 1166.625 281.725585938 c 0
 1169.52246094 200.580078125 1159.23535156 174.456054688 1096.54980469 90.126953125 c 0
 1026.50097656 -4.103515625 997.19140625 -28.1962890625 951.28125 -28.56640625 c 0
 887.700195312 -29.0791015625 754.8984375 -75.9072265625 740.28125 -118.677734375 c 0
 724.315429688 -165.396484375 844.8984375 -220.30859375 1046.54785156 -117.2421875 c 0
 1058.58105469 -111.091796875 1131.11425781 -73.6015625 1146.55078125 -65.521484375 c 0
 1276.38574219 2.4296875 1301.08300781 48.6953125 1295.37890625 188.01953125 c 0
895.379882812 284.720703125 m 0
 895.379882812 317.96875 847.875 452.694335938 738.448242188 449.7109375 c 0
 666.899414062 447.759765625 607.379882812 387.983398438 607.379882812 311.284179688 c 0
 607.379882812 183.736328125 771.989257812 106.295898438 786.145507812 106.295898438 c 0
 804.661132812 106.295898438 895.379882812 238.776367188 895.379882812 284.720703125 c 0
EndSplineSet
EndChar

StartChar: W
Encoding: 87 87 22
Width: 1500
VWidth: 2081
Flags: HW
LayerCount: 2
Fore
SplineSet
595.586914062 618.33984375 m 0
 557.54296875 633.838867188 504.483398438 648.30859375 479.981445312 648.30859375 c 0
 435.624023438 648.30859375 413.43359375 600.879882812 437.553710938 571.73828125 c 0
 484.487304688 515.028320312 384.249023438 355.01171875 368.80078125 339.563476562 c 0
 360.971679688 331.734375 349.223632812 304.62890625 349.223632812 289.875976562 c 0
 349.223632812 269.215820312 326.184570312 237.641601562 287.663085938 209.106445312 c 0
 268.584960938 194.9765625 230.184570312 162.973632812 217.807617188 150.94140625 c 0
 191.401367188 125.268554688 151.463867188 110.708007812 111.4765625 110.708007812 c 0
 86.1845703125 110.708007812 61.2236328125 104.883789062 61.2236328125 90.2705078125 c 0
 61.2236328125 60.7626953125 162.984375 -39.5263671875 227.1875 -51.9375 c 0
 283.944335938 -62.9111328125 379.083007812 -18.30078125 420.291992188 60.6796875 c 0
 454.000976562 125.293945312 522.0234375 163.483398438 522.0234375 200.8359375 c 0
 522.0234375 234.75 578.09375 244.952148438 576.78125 316.512695312 c 0
 575.73046875 373.747070312 609.8515625 475.508789062 628.678710938 475.508789062 c 0
 647.827148438 475.508789062 606.309570312 370.2109375 634.11328125 352.999023438 c 0
 647.3671875 344.795898438 656.424804688 309.428710938 656.424804688 240.2265625 c 0
 656.424804688 208.366210938 658.34375 206.708007812 693.359375 206.708007812 c 0
 779.3046875 206.708007812 811.35546875 216.692382812 815.313476562 246.370117188 c 0
 816.52734375 255.487304688 819.924804688 302.708007812 821.217773438 325.0703125 c 0
 831.890625 509.765625 873.776367188 446.708007812 937.23046875 188.989257812 c 0
 959.8125 97.26953125 965.999023438 85.7080078125 1037.63574219 20.9599609375 c 0
 1117.22363281 -50.9765625 1175.8203125 -96.5673828125 1196.96777344 -104.881835938 c 0
 1236.26269531 -120.331054688 1386.0234375 -101.334960938 1386.0234375 -76.9560546875 c 0
 1386.0234375 -69.65234375 1399.46386719 -62.0908203125 1417.29394531 -62.0908203125 c 0
 1440.20214844 -62.0908203125 1444.28808594 -49.6103515625 1431.9375 -1.08984375 c 0
 1426.69238281 19.5087890625 1419.27441406 43.5087890625 1415.3046875 43.5087890625 c 0
 1408.55175781 43.5087890625 1362.69042969 112.958007812 1259.94921875 124.108398438 c 0
 1161.38574219 134.8046875 1081.21191406 202.846679688 1079.63671875 267.45703125 c 0
 1078.47949219 314.88671875 1036.12792969 316.661132812 1045.08886719 331.594726562 c 0
 1061.90234375 359.620117188 995.75390625 504.182617188 1014.4453125 578.950195312 c 0
 1019.95605469 601 1012.58496094 607.10546875 969.91015625 612.2265625 c 0
 803.463867188 632.203125 736.86328125 560.784179688 595.586914062 618.33984375 c 0
EndSplineSet
EndChar

StartChar: X
Encoding: 88 88 23
Width: 1500
VWidth: 2076
Flags: HW
LayerCount: 2
Fore
SplineSet
1104.8125 699.029296875 m 0
 1104.8125 748.245117188 1020.08300781 809.126953125 938.9296875 818.548828125 c 0
 834.09375 830.721679688 585.83203125 774.373046875 491.356445312 715.840820312 c 0
 417.3671875 669.997070312 320.875 550.426757812 288.915039062 461.030273438 c 0
 252.234375 358.426757812 253.770507812 164.692382812 287.37890625 83.177734375 c 0
 322.71484375 -2.533203125 482.948242188 -181.092773438 521.106445312 -181.092773438 c 0
 534.188476562 -181.092773438 569.1328125 -202.081054688 596.6484375 -225.221679688 c 0
 695.118164062 -308.024414062 797.61328125 -286.693359375 797.61328125 -194.780273438 c 0
 797.61328125 -129.416015625 745.7734375 -82.267578125 630.2109375 -88.8076171875 c 0
 597.31640625 -90.6708984375 590.250976562 -87.013671875 510.008789062 -6.7705078125 c 0
 393.864257812 109.374023438 386.18359375 124.186523438 379.848632812 212.869140625 c 0
 372.348632812 317.892578125 379.565429688 346.907226562 418.7265625 420.336914062 c 0
 513.9765625 598.930664062 592.172851562 653.967773438 793.88671875 675.841796875 c 0
 853.29296875 682.283203125 864.325195312 679.439453125 925.046875 639.521484375 c 0
 1033.7734375 568.043945312 1069.73535156 530.267578125 1083.29003906 463.725585938 c 0
 1093.21875 414.994140625 1124.01269531 338.250976562 1124.01269531 302.942382812 c 0
 1124.01269531 254.745117188 1181.39453125 248.768554688 1212.82910156 280.204101562 c 0
 1291.28417969 358.661132812 1166.53222656 628.596679688 1125.9765625 652.927734375 c 0
 1113.90625 660.169921875 1104.8125 682.907226562 1104.8125 699.029296875 c 0
892.5625 358.822265625 m 0
 783.33203125 441.802734375 660.33203125 421.787109375 620.188476562 346.852539062 c 0
 578.915039062 269.806640625 634.413085938 151.845703125 736.9140625 124.142578125 c 0
 788.012695312 110.330078125 831.53125 124.157226562 894.703125 204.232421875 c 0
 923.948242188 241.306640625 951.211914062 284.728515625 951.211914062 295.116210938 c 0
 951.211914062 305.794921875 922.413085938 336.146484375 892.5625 358.822265625 c 0
EndSplineSet
EndChar

StartChar: Y
Encoding: 89 89 24
Width: 1500
VWidth: 1980
Flags: HW
LayerCount: 2
Fore
SplineSet
664.977539062 -38.30078125 m 0
 664.977539062 -53.599609375 799.37890625 -95.9814453125 799.37890625 -124.390625 c 0
 799.37890625 -151.8203125 924.665039062 -234.614257812 902.75 -318.1796875 c 0
 893.891601562 -351.9453125 916.497070312 -357.28515625 965.5546875 -326.15234375 c 0
 1096.57519531 -243.004882812 1085.45800781 -109.6484375 947.65625 -6.9541015625 c 0
 918.41796875 14.8349609375 875.469726562 52.47265625 864.653320312 66.4443359375 c 0
 850.004882812 85.3662109375 807.05859375 108.127929688 606.567382812 166.170898438 c 0
 564.090820312 178.466796875 533.96484375 187.6484375 545.442382812 219.784179688 c 0
 551.301757812 236.190429688 560.33984375 237.116210938 576.032226562 224.127929688 c 0
 627.881835938 181.217773438 666.78125 240.7578125 747.377929688 240.7578125 c 0
 785.66796875 240.7578125 798.05859375 254.198242188 807.196289062 302.93359375 c 0
 821.7265625 380.427734375 799.37890625 394.358398438 666.196289062 394.358398438 c 0
 574.739257812 394.358398438 549.778320312 400.928710938 549.778320312 425.404296875 c 0
 549.778320312 438.51953125 556.9453125 452.713867188 609.741210938 458.26953125 c 0
 709.774414062 468.803710938 820.9921875 528.7578125 857.94921875 528.7578125 c 0
 891.014648438 528.7578125 951.672851562 576.7578125 1009.36425781 636.065429688 c 0
 1132.84472656 762.998046875 1154.65136719 851.171875 1079.953125 971.755859375 c 0
 1064.16796875 997.23828125 1041.72363281 1027.95898438 1030.48828125 1027.95898438 c 0
 1008.01953125 1027.95898438 907.93359375 905.078125 897.413085938 833.913085938 c 0
 897.1484375 832.120117188 891.137695312 791.11328125 890.891601562 789.4140625 c 0
 882.91015625 734.198242188 785.348632812 645.55859375 744.778320312 644.491210938 c 0
 711.899414062 643.625 566.838867188 583.284179688 457.122070312 579.90625 c 0
 421.977539062 578.823242188 416.55078125 572.919921875 409.40234375 517.9296875 c 0
 380.09765625 292.487304688 465.43359375 346.041992188 409.118164062 187.337890625 c 0
 390.9453125 136.120117188 376.977539062 77.2890625 376.977539062 50.0146484375 c 0
 376.977539062 6.51953125 412.497070312 -4.041015625 433.06640625 16.52734375 c 0
 482.75390625 66.21484375 664.977539062 -20.482421875 664.977539062 -38.30078125 c 0
EndSplineSet
EndChar

StartChar: Z
Encoding: 90 90 25
Width: 1500
VWidth: 2009
Flags: HW
LayerCount: 2
Fore
SplineSet
699.608398438 807.71484375 m 0
 686.969726562 807.71484375 656.958007812 812.02734375 649.772460938 814.461914062 c 0
 615.836914062 825.956054688 439.2890625 755.235351562 394.73046875 718.1015625 c 0
 378.27734375 704.390625 343.2890625 685.647460938 319.104492188 676.424804688 c 0
 198.315429688 630.360351562 170.703125 485.153320312 234.44140625 231.952148438 c 0
 271.23046875 85.7958984375 306.811523438 29.3818359375 413.495117188 -57.3515625 c 0
 498.171875 -126.196289062 542.969726562 -145.30078125 648.051757812 -163.034179688 c 0
 784.889648438 -186.125 856.206054688 -178.58203125 931.077148438 -146.68359375 c 0
 1059.45019531 -91.9921875 1181.50683594 27.1611328125 1216.5703125 111.90234375 c 0
 1228.80761719 141.475585938 1253.37011719 179.422851562 1271.4609375 194.323242188 c 0
 1313.68359375 229.09375 1307.13183594 320.2265625 1251.3359375 359.28515625 c 0
 1184.6796875 405.94140625 1098.05175781 343.075195312 1107.76074219 259.2421875 c 0
 1116.28125 185.633789062 1056 81.01171875 998.448242188 54.4990234375 c 0
 974.969726562 43.6845703125 949.125 18.9931640625 942.26953125 -2.7216796875 c 0
 920.817382812 -70.6484375 742.651367188 -75.59765625 559.01953125 11.4912109375 c 0
 425.850585938 74.6484375 368.52734375 148.877929688 345.063476562 361.28125 c 0
 338.166992188 423.71484375 341.19140625 434.74609375 379.795898438 490.3359375 c 0
 449.530273438 590.75390625 499.024414062 640.249023438 677.604492188 675.09375 c 0
 678.327148438 675.234375 678.327148438 675.234375 678.327148438 675.234375 c 0
 802.6171875 675.234375 769.640625 807.71484375 699.608398438 807.71484375 c 0
762.262695312 511.4453125 m 0
 731.131835938 532.48046875 724.303710938 531.916992188 699.795898438 506.000976562 c 0
 576.577148438 375.71484375 598.651367188 230.91015625 684.413085938 185.0390625 c 0
 819.80859375 112.620117188 1021.89453125 336.020507812 762.262695312 511.4453125 c 0
EndSplineSet
EndChar

StartChar: a
Encoding: 97 97 26
Width: 1500
VWidth: 2098
Flags: HW
LayerCount: 2
Fore
SplineSet
966.59375 651.319335938 m 0
 966.59375 651.319335938 966.59375 651.319335938 966.114257812 651.181640625 c 0
 783.512695312 598.509765625 769.075195312 530.361328125 781.930664062 154.041015625 c 2
 788.032226562 -24.51953125 l 1
 721.79296875 -24.51953125 l 2
 585.55078125 -24.51953125 592.762695312 124.68359375 502.010742188 70.5234375 c 0
 459.114257812 44.92578125 442.0390625 2.361328125 469.520507812 -77.888671875 c 0
 480.196289062 -109.06640625 485.6328125 -110.985351562 555.58203125 -111.951171875 c 0
 812.80078125 -115.5 760.44140625 -139.719726562 827.510742188 -139.719726562 c 0
 869.733398438 -139.719726562 874.819335938 -130.119140625 877.844726562 -55.2744140625 c 0
 887.14453125 174.91015625 852.6640625 421.526367188 880.671875 404.12890625 c 0
 899.674804688 392.323242188 989.6328125 440.119140625 989.6328125 468.369140625 c 0
 989.6328125 479.288085938 1003.07128906 495.208984375 1021.06640625 502.130859375 c 0
 1059.02636719 516.729492188 1054.91308594 563 966.59375 651.319335938 c 0
EndSplineSet
EndChar

StartChar: d
Encoding: 100 100 27
Width: 1500
VWidth: 2062
Flags: HW
LayerCount: 2
Fore
SplineSet
439.411132812 539.956054688 m 0
 439.309570312 540.068359375 439.309570312 540.068359375 438.930664062 539.91796875 c 0
 152.043945312 426.98828125 315.180664062 78.396484375 360.583007812 40.31640625 c 0
 370.950195312 31.62109375 381.108398438 34.146484375 401.159179688 60.2724609375 c 0
 435.38671875 104.875 464.270507812 111.295898438 623.09765625 119.61328125 c 0
 752.270507812 126.37890625 879.03515625 136.263671875 976.4140625 150.01171875 c 0
 1004.75 154.01171875 1005.7109375 153.46875 1005.7109375 135.557617188 c 0
 1005.7109375 25.205078125 1042.19140625 8.423828125 1137.30957031 33.9638671875 c 0
 1197.7109375 50.1826171875 1215.30957031 65.625 1223.76269531 108.361328125 c 0
 1241.89453125 200.030273438 1180.4296875 227.631835938 960.16015625 223.061523438 c 0
 708.375 217.837890625 772.83984375 181.444335938 497.0390625 179.6640625 c 0
 421.071289062 179.174804688 410.510742188 181.901367188 410.510742188 212.1328125 c 0
 410.510742188 281.484375 354.9375 292.190429688 388.385742188 311.953125 c 0
 400.91015625 319.354492188 410.510742188 318.91796875 410.510742188 311.463867188 c 0
 410.510742188 291.595703125 478.684570312 386.467773438 492.178710938 423.70703125 c 0
 501.640625 449.827148438 494.75 476.70703125 439.411132812 539.956054688 c 0
EndSplineSet
EndChar

StartChar: s
Encoding: 115 115 28
Width: 1500
VWidth: 2060
Flags: HW
LayerCount: 2
Fore
SplineSet
278.245117188 633.637695312 m 5
 228.26171875 626.102539062 225.1171875 606.323242188 225.4453125 585.637695312 c 5
 311.37109375 500.836914062 383.77734375 416.037109375 436.64453125 331.237304688 c 5
 425.6953125 229.615234375 438.934570312 114.047851562 407.844726562 24.037109375 c 5
 405.203125 -3.8486328125 431.83984375 -9.9130859375 460.64453125 -14.3623046875 c 13
 518.245117188 9.6376953125 l 5
 595.6171875 -31.3291015625 688.38671875 -29.9169921875 782.245117188 -9.5615234375 c 13
 849.4453125 -86.3623046875 l 21
 853.877929688 -105.440429688 902.610351562 -110.819335938 912.100585938 -70.8857421875 c 4
 919.1015625 -41.4208984375 916.483398438 62.134765625 911.844726562 48.037109375 c 5
 993.4453125 307.237304688 1087.04589844 576.037109375 1226.26855469 585.197265625 c 12
 1300.25097656 590.064453125 1281.06152344 662.969726562 1223.72753906 666.446289062 c 20
 1171.04589844 669.637695312 1082.24511719 614.438476562 1017.4453125 564.037109375 c 13
 801.4453125 28.837890625 l 29
 739.045898438 31.2373046875 l 29
 739.045898438 31.2373046875 724.64453125 228.037109375 708.958007812 288.166015625 c 4
 687.967773438 368.626953125 624.407226562 358.717773438 611.938476562 289.251953125 c 4
 602.245117188 235.237304688 609.4453125 67.2373046875 609.4453125 67.2373046875 c 21
 578.762695312 53.0927734375 550.6328125 45.2470703125 532.64453125 62.4384765625 c 13
 542.245117188 172.837890625 l 22
 548.5546875 236.749023438 536.4765625 289.653320312 489.4453125 321.637695312 c 5
 445.895507812 447.900390625 397.60546875 570.232421875 278.245117188 633.637695312 c 5
EndSplineSet
EndChar

StartChar: w
Encoding: 119 119 29
Width: 1500
VWidth: 2081
Flags: HW
LayerCount: 2
Fore
SplineSet
595.586914062 618.33984375 m 0
 557.54296875 633.838867188 504.483398438 648.30859375 479.981445312 648.30859375 c 0
 435.624023438 648.30859375 413.43359375 600.879882812 437.553710938 571.73828125 c 0
 484.487304688 515.028320312 384.249023438 355.01171875 368.80078125 339.563476562 c 0
 360.971679688 331.734375 349.223632812 304.62890625 349.223632812 289.875976562 c 0
 349.223632812 269.215820312 326.184570312 237.641601562 287.663085938 209.106445312 c 0
 268.584960938 194.9765625 230.184570312 162.973632812 217.807617188 150.94140625 c 0
 191.401367188 125.268554688 151.463867188 110.708007812 111.4765625 110.708007812 c 0
 86.1845703125 110.708007812 61.2236328125 104.883789062 61.2236328125 90.2705078125 c 0
 61.2236328125 60.7626953125 162.984375 -39.5263671875 227.1875 -51.9375 c 0
 283.944335938 -62.9111328125 379.083007812 -18.30078125 420.291992188 60.6796875 c 0
 454.000976562 125.293945312 522.0234375 163.483398438 522.0234375 200.8359375 c 0
 522.0234375 234.75 578.09375 244.952148438 576.78125 316.512695312 c 0
 575.73046875 373.747070312 609.8515625 475.508789062 628.678710938 475.508789062 c 0
 647.827148438 475.508789062 606.309570312 370.2109375 634.11328125 352.999023438 c 0
 647.3671875 344.795898438 656.424804688 309.428710938 656.424804688 240.2265625 c 0
 656.424804688 208.366210938 658.34375 206.708007812 693.359375 206.708007812 c 0
 779.3046875 206.708007812 811.35546875 216.692382812 815.313476562 246.370117188 c 0
 816.52734375 255.487304688 819.924804688 302.708007812 821.217773438 325.0703125 c 0
 831.890625 509.765625 873.776367188 446.708007812 937.23046875 188.989257812 c 0
 959.8125 97.26953125 965.999023438 85.7080078125 1037.63574219 20.9599609375 c 0
 1117.22363281 -50.9765625 1175.8203125 -96.5673828125 1196.96777344 -104.881835938 c 0
 1236.26269531 -120.331054688 1386.0234375 -101.334960938 1386.0234375 -76.9560546875 c 0
 1386.0234375 -69.65234375 1399.46386719 -62.0908203125 1417.29394531 -62.0908203125 c 0
 1440.20214844 -62.0908203125 1444.28808594 -49.6103515625 1431.9375 -1.08984375 c 0
 1426.69238281 19.5087890625 1419.27441406 43.5087890625 1415.3046875 43.5087890625 c 0
 1408.55175781 43.5087890625 1362.69042969 112.958007812 1259.94921875 124.108398438 c 0
 1161.38574219 134.8046875 1081.21191406 202.846679688 1079.63671875 267.45703125 c 0
 1078.47949219 314.88671875 1036.12792969 316.661132812 1045.08886719 331.594726562 c 0
 1061.90234375 359.620117188 995.75390625 504.182617188 1014.4453125 578.950195312 c 0
 1019.95605469 601 1012.58496094 607.10546875 969.91015625 612.2265625 c 0
 803.463867188 632.203125 736.86328125 560.784179688 595.586914062 618.33984375 c 0
EndSplineSet
EndChar

StartChar: q
Encoding: 113 113 30
Width: 1500
VWidth: 2060
Flags: HW
LayerCount: 2
Fore
SplineSet
887.071289062 679.46484375 m 0
 827.91015625 738.623046875 701.168945312 658.879882812 636.946289062 674.427734375 c 0
 584.528320312 687.1171875 484.688476562 637.72265625 484.688476562 606.890625 c 0
 484.688476562 590.329101562 455.889648438 544.25 409.5703125 488.66796875 c 0
 343.403320312 409.265625 317.078125 354.168945312 300.985351562 249.102539062 c 0
 290.61328125 181.368164062 295.295898438 163.403320312 330.80859375 127.891601562 c 0
 358.359375 100.340820312 403.735351562 46.96875 430.74609375 11.19921875 c 0
 503.973632812 -85.7763671875 561.489257812 -112.561523438 740.305664062 -130.342773438 c 0
 841.80859375 -140.4375 877.7109375 -137.21875 911.420898438 -115.205078125 c 0
 941.68359375 -95.44140625 987.727539062 -81.6708984375 1020.78222656 -81.6708984375 c 0
 1159.734375 -81.6708984375 1200.27832031 161.704101562 1203.73828125 234.344726562 c 0
 1204.62890625 253.05078125 1202.76953125 254.329101562 1120.31347656 254.329101562 c 0
 1033.80859375 254.329101562 1031.75390625 252.921875 1029.56640625 230.45703125 c 0
 1017.49902344 106.490234375 952.881835938 43.3994140625 881.461914062 50.837890625 c 0
 851.409179688 53.9697265625 802.78125 46.671875 765.76171875 31.19140625 c 0
 729.012695312 15.8251953125 706.450195312 19.23828125 621.932617188 59.3173828125 c 0
 541.3828125 97.51953125 532.375 108.41015625 502.62890625 210.66796875 c 0
 476.520507812 300.41015625 476.265625 316.74609375 506.391601562 363.611328125 c 0
 559.5703125 446.329101562 632.8359375 508.162109375 697.793945312 521.711914062 c 0
 766.928710938 536.1328125 907.08984375 618.090820312 907.08984375 645.798828125 c 0
 907.08984375 653.05078125 897.489257812 669.048828125 887.071289062 679.46484375 c 0
EndSplineSet
EndChar

StartChar: e
Encoding: 101 101 31
Width: 1500
VWidth: 2006
Flags: HW
LayerCount: 2
Fore
SplineSet
939.83203125 887.364257812 m 9
 911.032226562 335.364257812 l 17
 862.671875 313.868164062 874.006835938 260.434570312 896.6328125 200.963867188 c 9
 896.6328125 200.963867188 896.671875 101.471679688 890.049804688 112.821289062 c 0
 878.758789062 132.166015625 810.506835938 -39.9384765625 863.032226562 -91.8349609375 c 9
 867.83203125 -159.036132812 l 1
 771.836914062 -171.354492188 675.836914062 -170.883789062 579.83203125 -163.834960938 c 1
 533.717773438 -79.3857421875 452.475585938 -93.9443359375 368.6328125 -115.834960938 c 1
 261.76953125 -226.213867188 333.073242188 -239.654296875 330.233398438 -293.435546875 c 1
 357.131835938 -354.861328125 479.032226562 -307.834960938 527.032226562 -264.635742188 c 9
 767.032226562 -269.435546875 l 1
 849.928710938 -280.521484375 951.924804688 -330.241210938 949.432617188 -168.635742188 c 1
 976.06640625 -104.819335938 1041.38671875 -77.0107421875 992.6328125 56.9638671875 c 9
 973.432617188 181.763671875 l 17
 1069.79296875 218.771484375 1020.3515625 288.918945312 1011.83203125 349.763671875 c 9
 1002.23339844 695.364257812 l 17
 1211.8125 703.686523438 1190.33496094 789.369140625 1189.43261719 868.165039062 c 1
 1163.13769531 903.852539062 1135.35058594 936.392578125 1103.03222656 959.364257812 c 1
 1048.63378906 976.961914062 994.233398438 952.961914062 939.83203125 887.364257812 c 9
575.032226562 143.364257812 m 1
 626.234375 123.901367188 677.43359375 98.6591796875 728.6328125 148.165039062 c 1
 775.116210938 203.647460938 777.260742188 267.099609375 752.6328125 335.364257812 c 1
 694.979492188 421.787109375 603.608398438 392.650390625 522.233398438 397.763671875 c 1
 486.8203125 277.680664062 459.45703125 162.951171875 575.032226562 143.364257812 c 1
EndSplineSet
EndChar

StartChar: b
Encoding: 98 98 32
Width: 1500
VWidth: 2076
Flags: HW
LayerCount: 2
Fore
SplineSet
466.1015625 544.125 m 0
 391.485351562 623.884765625 302.819335938 589.122070312 263.948242188 486.693359375 c 0
 215.926757812 360.154296875 314.750976562 317.046875 530.334960938 335.446289062 c 0
 611.87109375 342.407226562 754.432617188 347.203125 860.03125 347.203125 c 2
 1052.03125 347.203125 l 1
 1057.79296875 273.283203125 l 2
 1061.3828125 227.203125 1052.79589844 187.071289062 1025.43457031 155.80078125 c 0
 984.592773438 109.122070312 988.670898438 46.23046875 1060.5 -20.34375 c 0
 1103.87109375 -60.5390625 1122.22265625 -55.99609375 1174.10839844 23.685546875 c 0
 1216.08496094 88.1484375 1219.66796875 109.122070312 1210.24609375 204.79296875 c 0
 1199.05761719 318.403320312 1203.01464844 359.129882812 1238.24511719 409.625976562 c 0
 1251.62402344 428.802734375 1251.0859375 433.08984375 1237.28125 440.71875 c 0
 1196.88574219 463.04296875 1126.91308594 467.556640625 1020.296875 458.739257812 c 0
 815.311523438 441.782226562 504.83203125 454.192382812 504.83203125 485.223632812 c 0
 504.83203125 492.6875 486.87109375 521.922851562 466.1015625 544.125 c 0
EndSplineSet
EndChar

StartChar: c
Encoding: 99 99 33
Width: 1500
VWidth: 2060
Flags: HW
LayerCount: 2
Fore
SplineSet
774.0390625 733.31640625 m 0
 648.840820312 720.970703125 630.454101562 723.458007812 593.959960938 771.680664062 c 0
 580.842773438 789.017578125 579.041992188 788.576171875 573.557617188 773.08984375 c 0
 554.3671875 718.908203125 550.190429688 650.3359375 559.5703125 505.46875 c 0
 563.540039062 444.149414062 563.936523438 414.176757812 558.76171875 204.109375 c 0
 554.809570312 43.615234375 554.08984375 41.2705078125 535.515625 29.4765625 c 0
 359.995117188 -81.9599609375 455.311523438 -190.291992188 594.639648438 -214.315429688 c 0
 627.721679688 -220.018554688 637.166992188 -216.46484375 643.39453125 -199.248046875 c 0
 660.741210938 -151.288085938 663.747070312 32.095703125 658.44140625 233.696289062 c 2
 648.840820312 598.497070312 l 1
 746.762695312 591.77734375 l 2
 800.522460938 588.087890625 854.713867188 572.93359375 875.7109375 547.559570312 c 0
 904.846679688 512.356445312 974.12109375 525.536132812 1018.30371094 586.977539062 c 2
 1059.72167969 644.576171875 l 1
 982.921875 695.458007812 l 2
 911.53125 742.754882812 896.522460938 745.391601562 774.0390625 733.31640625 c 0
EndSplineSet
EndChar

StartChar: f
Encoding: 102 102 34
Width: 1500
VWidth: 2051
Flags: HW
LayerCount: 2
Fore
SplineSet
781.2890625 234.80078125 m 5
 826.08984375 206.81640625 870.887695312 239.76171875 915.688476562 254 c 1
 958.444335938 289.08203125 986.768554688 348.596679688 1006.88964844 422 c 1
 961.180664062 439.680664062 946.844726562 405.6953125 925.2890625 383.600585938 c 1
 910.78125 430.98828125 879.7109375 431.984375 853.2890625 446 c 1
 815.4140625 409.171875 779.616210938 370.66015625 757.2890625 321.19921875 c 5
 746.42578125 243.9140625 769.256835938 253.235351562 781.2890625 234.80078125 c 5
363.688476562 585.19921875 m 1
 301.2890625 609.19921875 243.688476562 566 243.688476562 566 c 1
 200.559570312 527.500976562 240.1875 506.328125 258.008789062 467.16796875 c 0
 286.233398438 405.16796875 360.92578125 413.46875 430.889648438 412.399414062 c 9
 723.688476562 513.19921875 l 17
 793.836914062 494.079101562 866.454101562 483.526367188 949.2890625 508.399414062 c 1
 1018.08984375 519.96875 1086.88769531 520.28125 1155.68847656 522.80078125 c 1
 1151.80957031 468.3984375 1106.85644531 414 1150.88964844 359.600585938 c 9
 1160.48925781 311.600585938 l 17
 1125.0546875 273.19921875 1148.65332031 234.80078125 1150.88964844 196.399414062 c 10
 1160.48925781 71.6005859375 l 1
 1102.88964844 71.6005859375 1098.46484375 126 1074.08984375 162.80078125 c 1
 982.889648438 158 937.520507812 145.140625 910.889648438 62 c 1
 921.799804688 20.5654296875 967.844726562 14.2900390625 1016.48925781 -10 c 9
 1232.48925781 -48.3994140625 l 1
 1222.88964844 210.80078125 l 1
 1261.28515625 239.600585938 1274.0859375 274.80078125 1261.2890625 316.399414062 c 9
 1256.48925781 354.80078125 l 17
 1274.0703125 393.936523438 1293.07910156 432.79296875 1246.88964844 484.399414062 c 9
 1227.68847656 628.399414062 l 25
 1165.2890625 594.80078125 l 9
 1126.88964844 590 l 17
 1065.52734375 624.46484375 1009.265625 642.432617188 973.2890625 594.80078125 c 1
 926.890625 543.965820312 880.48828125 573.43359375 834.08984375 585.19921875 c 1
 766.13671875 607.0703125 712.1015625 589.077148438 656.489257812 575.600585938 c 9
 459.688476562 503.600585938 l 25
 363.688476562 585.19921875 l 1
EndSplineSet
EndChar

StartChar: g
Encoding: 103 103 35
Width: 1500
VWidth: 2078
Flags: HW
LayerCount: 2
Fore
SplineSet
645.715820312 646.165039062 m 0
 627.2109375 675.885742188 450.088867188 683.600585938 517.03125 559.275390625 c 0
 573 455.327148438 550.600585938 272.362304688 577.002929688 224.587890625 c 0
 597.75390625 187.038085938 602.21875 40.9150390625 543.40234375 58.8857421875 c 0
 521.098632812 65.7021484375 492.041992188 53.7607421875 457.6796875 15.6845703125 c 0
 438.360351562 -5.7236328125 438.041992188 -12.4814453125 450.6953125 -33.4990234375 c 0
 505.084960938 -123.838867188 596.0546875 -140.280273438 622.12890625 -108.956054688 c 0
 673.609375 -47.111328125 673.301757812 442.560546875 630.208007812 521.318359375 c 0
 622.875 534.719726562 617.37890625 558.927734375 623.09765625 564.649414062 c 0
 630.229492188 571.780273438 682.448242188 577.823242188 760.696289062 579.259765625 c 0
 834.12890625 580.607421875 845.75390625 576.344726562 852.540039062 547.955078125 c 0
 861.625 509.978515625 885.969726562 487.534179688 925.641601562 477.803710938 c 0
 958.796875 469.670898438 975.323242188 477.119140625 1014.11230469 525.145507812 c 0
 1071.46972656 596.161132812 1070.85644531 623.852539062 1022.19824219 641.948242188 c 0
 946.448242188 670.120117188 767.09765625 670.263671875 698.282226562 644.458984375 c 0
 673.80859375 635.280273438 652.225585938 635.711914062 645.715820312 646.165039062 c 0
810.328125 316.701171875 m 0
 777.489257812 325.768554688 770.868164062 325.146484375 758.223632812 292.638671875 c 0
 747.088867188 263.999023438 741.7890625 263.099609375 731.305664062 279.749023438 c 0
 720.067382812 297.599609375 711.28515625 300.836914062 709.799804688 285.986328125 c 0
 709.22265625 280.213867188 705.45703125 256.319335938 704.397460938 250.741210938 c 0
 695.071289062 201.564453125 742.928710938 140.318359375 783.475585938 125.752929688 c 0
 827.409179688 109.970703125 885.008789062 141.001953125 885.008789062 172.756835938 c 0
 885.008789062 188.095703125 898.448242188 205.837890625 920.532226562 214.377929688 c 0
 967.1953125 232.416992188 944.528320312 279.646484375 810.328125 316.701171875 c 0
EndSplineSet
EndChar

StartChar: h
Encoding: 104 104 36
Width: 1500
VWidth: 2111
Flags: HW
LayerCount: 2
Fore
SplineSet
1292.83691406 -145.938476562 m 0
 1321.85546875 -145.938476562 1318.26660156 -107.5390625 1367.13964844 -107.5390625 c 0
 1422.859375 -107.5390625 1442.35253906 -57.6201171875 1416.7890625 40.0732421875 c 0
 1403.49316406 90.8857421875 1392.05566406 100.93359375 1309.19628906 127.098632812 c 0
 1190.45605469 164.596679688 1135.39453125 168.765625 1119.66796875 154.66796875 c 0
 1079.15136719 118.342773438 746.227539062 175.284179688 698.58984375 134.973632812 c 0
 686.415039062 124.672851562 661.497070312 125.69921875 626.813476562 138.399414062 c 0
 488.356445312 189.10546875 348.475585938 111.266601562 300.77734375 128.7578125 c 0
 246.770507812 148.559570312 233.200195312 319.08984375 210.12890625 373.471679688 c 0
 199.403320312 398.754882812 207.416992188 409.811523438 240.182617188 417.745117188 c 0
 318.77734375 436.770507812 373.389648438 502.43359375 363.997070312 600.516601562 c 0
 361.37109375 627.9609375 356.215820312 632.0078125 303.481445312 635.821289062 c 0
 217.977539062 642.000976562 193.120117188 634.13671875 153.51953125 592.178710938 c 0
 94.7412109375 529.899414062 58.19921875 450.481445312 77.16015625 427.272460938 c 0
 101.5 397.477539062 132.0625 155.5 125.047851562 91.140625 c 0
 116.995117188 17.26171875 182.608398438 -69.1396484375 228.840820312 -69.1396484375 c 0
 251.364257812 -69.1396484375 303.416992188 -48.6328125 375.534179688 -10.1240234375 c 0
 458.750976562 34.3125 480.055664062 35.9833984375 735.5625 28.92578125 c 0
 1119.41699219 18.3232421875 1157.81640625 12.1640625 1157.81640625 -12.4453125 c 0
 1157.81640625 -49.9384765625 1246.95800781 -145.938476562 1292.83691406 -145.938476562 c 0
832.321289062 599.1796875 m 0
 768.668945312 651.598632812 708.536132812 649.407226562 661.828125 609.247070312 c 0
 598.192382812 554.532226562 555.84375 426.22265625 568.64453125 383.809570312 c 0
 582.15234375 339.067382812 685.497070312 295.661132812 727.078125 295.661132812 c 0
 788.296875 295.661132812 844.66796875 389.7421875 861.639648438 510.247070312 c 0
 868.1953125 556.78125 864.055664062 573.043945312 832.321289062 599.1796875 c 0
EndSplineSet
EndChar

StartChar: i
Encoding: 105 105 37
Width: 1500
VWidth: 2084
Flags: HW
LayerCount: 2
Fore
SplineSet
705.703125 445.2578125 m 0
 721.6875 506.8984375 888.5390625 556.073242188 888.5390625 525.467773438 c 0
 888.5390625 510.658203125 927.60546875 460.659179688 962.969726562 422.423828125 c 0
 1126.14550781 245.987304688 1078.62011719 132.147460938 825.178710938 48.6396484375 c 2
 694.620117188 5.6201171875 l 1
 626.458007812 59.3779296875 l 2
 588.05859375 89.6669921875 544.467773438 117.749023438 524.036132812 124.560546875 c 0
 456.764648438 146.990234375 418.069335938 306.760742188 558.454101562 429.98828125 c 0
 583.258789062 451.76171875 591.7109375 453.1328125 603.90234375 436.436523438 c 0
 637.596679688 390.291015625 696.254882812 408.819335938 705.703125 445.2578125 c 0
1182.80859375 330.671875 m 0
 1148.6484375 518.034179688 934.215820312 726.576171875 769.856445312 654.815429688 c 0
 742.235351562 642.756835938 704.219726562 634.69140625 684.36328125 634.044921875 c 0
 571.739257812 630.376953125 312.5390625 402.302734375 312.5390625 304.592773438 c 0
 312.5390625 287.858398438 320.141601562 254.467773438 342.401367188 212.919921875 c 0
 369.110351562 163.05859375 427.739257812 25.970703125 427.739257812 5.458984375 c 0
 427.739257812 -28.12109375 584.856445312 -172.779296875 723.508789062 -129.74609375 c 0
 738.778320312 -125.005859375 786.547851562 -112.525390625 802.362304688 -109.244140625 c 0
 882.940429688 -92.5205078125 939.858398438 -14.140625 1037.89160156 50.1435546875 c 0
 1158.69628906 129.358398438 1202.8671875 220.659179688 1182.80859375 330.671875 c 0
EndSplineSet
EndChar

StartChar: j
Encoding: 106 106 38
Width: 1500
VWidth: 2104
Flags: HW
LayerCount: 2
Fore
SplineSet
327.600585938 466.606445312 m 1
 327.600585938 412.2109375 302 377.008789062 250.80078125 361.005859375 c 1
 202.80078125 364.2109375 174 386.609375 164.399414062 428.20703125 c 10
 145.19921875 509.805664062 l 21
 147.471679688 527.21875 195.348632812 591.150390625 260.399414062 601.005859375 c 5
 500.399414062 586.606445312 l 1
 721.666992188 249.036132812 609.140625 263.801757812 663.600585938 87.40625 c 1
 736.50390625 85.1962890625 792.442382812 123.044921875 841.19921875 125.805664062 c 1
 918.178710938 291.6640625 1013.20703125 442.919921875 1153.19921875 557.805664062 c 1
 1191.9140625 556.76171875 1223.07421875 577.770507812 1273.19921875 543.40625 c 1
 1371.9140625 536.640625 1335.4375 491.24609375 1354.80078125 461.805664062 c 1
 1344.80078125 413.1640625 1330.54394531 367.12109375 1258.80078125 356.20703125 c 1
 1223.78515625 385.42578125 1170.7109375 399.595703125 1158 447.40625 c 1
 1073.07128906 405.734375 1037.59765625 244.258789062 980.399414062 135.40625 c 1
 1007.60449219 103.407226562 1025.203125 71.40625 1033.19921875 39.40625 c 1
 993.999023438 -86.755859375 987.776367188 -24.951171875 966 -51.79296875 c 1
 966 -88.7802734375 886.526367188 -86.7265625 870.609375 -61.59765625 c 0
 859.8671875 -44.638671875 799.766601562 -5.9599609375 807.600585938 5.8056640625 c 1
 753.171875 -48.880859375 715.8046875 1.84765625 673.19921875 20.20703125 c 1
 654.301757812 -30.787109375 632.0859375 -48.6396484375 616.772460938 -67.9560546875 c 0
 577.19921875 -117.866210938 543.600585938 -94.712890625 510 -80.59375 c 1
 493.54296875 47.73828125 525.588867188 175.380859375 475.6328125 350.801757812 c 0
 472.204101562 362.845703125 456.711914062 424.263671875 418.80078125 471.40625 c 1
 373.53515625 488.1953125 347.41796875 481.296875 327.600585938 466.606445312 c 1
EndSplineSet
EndChar

StartChar: k
Encoding: 107 107 39
Width: 1500
VWidth: 2028
Flags: HW
LayerCount: 2
Fore
SplineSet
922.62890625 728.876953125 m 0
 830.709960938 792.966796875 765.52734375 767.375976562 765.52734375 632.448242188 c 0
 765.52734375 592.334960938 771.288085938 585.975585938 808.584960938 580.021484375 c 0
 922.965820312 561.758789062 984.4375 500.771484375 973.1015625 441.971679688 c 0
 967.444335938 412.620117188 975.793945312 361.294921875 1000.12792969 303.400390625 c 0
 1017 263.258789062 1015.43652344 251.856445312 984.40234375 192.772460938 c 0
 932.7421875 94.4150390625 906.038085938 66.9248046875 865.122070312 62.0146484375 c 0
 844.7734375 59.572265625 801.046875 48.3154296875 781.5703125 40.677734375 c 0
 646.546875 -12.2783203125 487.930664062 208.848632812 486.465820312 294.829101562 c 0
 485.381835938 358.415039062 399.140625 449.741210938 352.530273438 432.260742188 c 0
 333.87109375 425.264648438 331.331054688 404.495117188 345.99609375 233.091796875 c 0
 359.584960938 74.255859375 364.28125 62.6943359375 421.854492188 33.5537109375 c 0
 483.288085938 2.4580078125 533.610351562 -33.4716796875 561.31640625 -63.8798828125 c 0
 647.127929688 -158.065429688 839.98046875 -184.571289062 926.21484375 -97.5556640625 c 0
 942.665039062 -80.9541015625 990.166992188 -41.068359375 1015.64746094 -22.986328125 c 0
 1194.8125 104.162109375 1180.06152344 399.013671875 1131.64746094 471.635742188 c 0
 1117.52734375 492.814453125 1107.76171875 530.654296875 1113.04199219 551.120117188 c 0
 1124.75390625 596.495117188 1053.52734375 692.495117188 1006.24609375 692.495117188 c 0
 989.49609375 692.495117188 957.52734375 704.544921875 922.62890625 728.876953125 c 0
EndSplineSet
EndChar

StartChar: l
Encoding: 108 108 40
Width: 1500
VWidth: 2037
Flags: HW
LayerCount: 2
Fore
SplineSet
642.810546875 853.508789062 m 0
 647.466796875 927.46875 614.791015625 945.168945312 528.120117188 858.500976562 c 0
 492.139648438 822.517578125 487.693359375 809.387695312 498.810546875 771.3515625 c 0
 530.073242188 664.396484375 599.009765625 652.590820312 599.009765625 614.176757812 c 0
 599.009765625 565.353515625 710.370117188 516.438476562 919.689453125 483.673828125 c 0
 1011.81054688 469.255859375 1040.609375 458.6484375 1040.609375 423.278320312 c 0
 1040.609375 377.290039062 1089.29589844 381.357421875 1065.84570312 351.392578125 c 0
 1053.86914062 336.087890625 1040.95507812 304.426757812 1034.37304688 277.60546875 c 0
 1023.29492188 232.426757812 1006.04882812 221.66015625 832.561523438 186.7734375 c 0
 695.009765625 159.111328125 662.384765625 147.962890625 617.694335938 103.271484375 c 0
 585.5703125 71.146484375 551.436523438 48.107421875 536.244140625 48.107421875 c 0
 489.833984375 48.107421875 291.810546875 -166.931640625 291.810546875 -233.400390625 c 0
 291.810546875 -266.772460938 341.729492188 -316.693359375 383.451171875 -316.693359375 c 0
 437.729492188 -316.693359375 522.209960938 -232.212890625 522.209960938 -176.6953125 c 0
 522.209960938 -79.095703125 783.330078125 62.087890625 935.780273438 38.861328125 c 0
 979.170898438 32.251953125 1028.18164062 10.1298828125 1054.00683594 -20.001953125 c 0
 1087.78710938 -59.412109375 1139.1875 -59.412109375 1159.78320312 -26.7255859375 c 0
 1197.26074219 32.7470703125 1189.66015625 290.735351562 1153.55761719 326.840820312 c 0
 1125.07617188 355.32421875 1219.4140625 416.786132812 1207.06835938 573.205078125 c 0
 1204.26464844 608.747070312 1198.65527344 614.961914062 1166.5390625 617.794921875 c 0
 1042.2734375 628.759765625 886.7421875 556.810546875 861.014648438 593.258789062 c 0
 837.265625 626.90625 631.241210938 669.696289062 642.810546875 853.508789062 c 0
EndSplineSet
EndChar

StartChar: m
Encoding: 109 109 41
Width: 1500
VWidth: 2037
Flags: HW
LayerCount: 2
Fore
SplineSet
881.393554688 67.494140625 m 0
 814.165039062 67.494140625 821.30859375 9.89453125 706.807617188 9.89453125 c 0
 659.768554688 9.89453125 632.0703125 0.1728515625 622.737304688 -24.3544921875 c 0
 594.776367188 -97.8544921875 795.125976562 -137.752929688 902.979492188 -62.255859375 c 0
 948.7265625 -30.2333984375 1020.53515625 52.439453125 1021.30859375 85.7265625 c 0
 1021.96484375 113.868164062 1072.07421875 120.451171875 1090.12207031 214.864257812 c 0
 1096.82128906 249.89453125 1109.95019531 283.38671875 1125.90234375 293.201171875 c 0
 1156.15136719 311.81640625 1136.88769531 391.321289062 1078.07519531 437.434570312 c 0
 1011.36035156 489.744140625 994.422851562 585.89453125 959.797851562 585.89453125 c 0
 933.086914062 585.89453125 902.012695312 643.114257812 840.647460938 644.508789062 c 0
 762.905273438 646.274414062 719.859375 737.95703125 688.926757812 687.008789062 c 0
 678.829101562 670.375 666.48828125 667.369140625 654.518554688 674.654296875 c 0
 593.1171875 712.029296875 417.989257812 541.732421875 373.661132812 414.408203125 c 0
 336.442382812 307.494140625 376.825195312 188.869140625 471.918945312 165.09765625 c 0
 503.944335938 157.090820312 512.208007812 167.333007812 498.934570312 206.8046875 c 0
 466.3671875 303.654296875 491.671875 438.055664062 559.293945312 532.9140625 c 0
 579.473632812 561.219726562 587.768554688 564.044921875 622.74609375 559.615234375 c 0
 890.196289062 525.736328125 957.051757812 290.646484375 923.512695312 268.286132812 c 0
 912.249023438 260.774414062 905.821289062 224.93359375 909.461914062 135.723632812 c 0
 911.85546875 77.0947265625 908.840820312 67.494140625 881.393554688 67.494140625 c 0
EndSplineSet
EndChar

StartChar: n
Encoding: 110 110 42
Width: 1500
VWidth: 2004
Flags: HW
LayerCount: 2
Fore
SplineSet
835.125 506.2734375 m 0
 602.282226562 384.7890625 700.76171875 553.3359375 617.088867188 553.3359375 c 0
 565.78515625 553.3359375 526.190429688 489.975585938 538.28125 448.123046875 c 0
 553.924804688 393.975585938 490.706054688 277.331054688 426.34375 265.58203125 c 0
 385.0078125 258.038085938 340.846679688 206.6171875 340.846679688 117.475585938 c 0
 340.846679688 92.53515625 344.303710938 89.5546875 366.829101562 95.1484375 c 0
 479.0859375 123.0234375 647.95703125 260.315429688 665.02734375 341.95703125 c 0
 669.68359375 364.228515625 681.647460938 371.557617188 752.686523438 375.736328125 c 2
 834.28515625 380.53515625 l 1
 859.24609375 274.936523438 l 2
 872.862304688 217.3359375 899.915039062 155.23828125 921.70703125 135.682617188 c 0
 959.0859375 102.135742188 1105.10449219 82.359375 1145.53125 109.3125 c 0
 1182.57421875 134.0078125 1139.56640625 203.666992188 1070.73339844 220.7265625 c 0
 1045.48535156 226.984375 1002.8203125 245.49609375 974.1328125 264.206054688 c 0
 939.278320312 286.936523438 934.600585938 303.736328125 937.749023438 393.155273438 c 0
 943.049804688 543.736328125 928.506835938 554.995117188 835.125 506.2734375 c 0
EndSplineSet
EndChar

StartChar: o
Encoding: 111 111 43
Width: 1500
VWidth: 2088
Flags: HW
LayerCount: 2
Fore
SplineSet
1040.91113281 541.329101562 m 0
 1001.63574219 541.329101562 954.983398438 627.485351562 835.89453125 682.44921875 c 0
 731.096679688 730.819335938 635.864257812 724.727539062 545.547851562 639.8515625 c 0
 536.577148438 631.420898438 485.336914062 584.09375 467.817382812 568.165039062 c 0
 375.17578125 483.948242188 361.95703125 451.08984375 350.288085938 339.877929688 c 0
 323.19140625 81.6376953125 381.225585938 132.608398438 385.141601562 29.8505859375 c 0
 388.698242188 -63.4697265625 440.723632812 -130.670898438 490.233398438 -130.670898438 c 0
 512.776367188 -130.670898438 550.616210938 -144.6015625 578.348632812 -162.891601562 c 0
 642.776367188 -205.38671875 709.9765625 -190.190429688 709.9765625 -123.803710938 c 0
 709.9765625 -103.790039062 716.084960938 -73.3779296875 727.268554688 -56.3564453125 c 0
 744.421875 -30.25 721.49609375 -15.4697265625 673.831054688 -15.4697265625 c 0
 573.65625 -15.4697265625 509.62109375 49.8095703125 511.620117188 154.569335938 c 0
 513.737304688 265.545898438 439.784179688 229.821289062 524.295898438 413.864257812 c 0
 553.053710938 476.4921875 564.057617188 485.94140625 689.709960938 522.1484375 c 0
 775.256835938 546.796875 786.309570312 547.071289062 819.99609375 527.729492188 c 0
 915.415039062 472.932617188 986.87109375 378.76953125 999.848632812 302.487304688 c 0
 1014.41503906 216.848632812 1103.31640625 104.969726562 1142.25 129.52734375 c 0
 1157.96386719 139.440429688 1161.21875 168.848632812 1151.10253906 235.317382812 c 0
 1144.27050781 280.209960938 1136.7265625 352.959960938 1135.65527344 377.639648438 c 0
 1132.04296875 460.690429688 1078.91015625 541.329101562 1040.91113281 541.329101562 c 0
EndSplineSet
EndChar

StartChar: p
Encoding: 112 112 44
Width: 1500
VWidth: 2083
Flags: HW
LayerCount: 2
Fore
SplineSet
1021.2890625 780.668945312 m 25
 867.688476562 588.668945312 l 17
 746.469726562 573.125976562 633.6796875 532.298828125 488.48828125 588.668945312 c 1
 465.953125 584.264648438 442.860351562 581.537109375 445.2890625 502.268554688 c 9
 498.088867188 444.668945312 l 1
 523.629882812 335.869140625 503.7890625 198.267578125 498.088867188 89.4697265625 c 9
 536.48828125 75.068359375 l 1
 598.887695312 142.268554688 l 1
 780.9296875 148.795898438 857.233398438 38.1455078125 954.088867188 -49.7314453125 c 9
 944.48828125 -217.731445312 l 1
 976.958007812 -234.090820312 1005.578125 -271.303710938 1050.08886719 -222.530273438 c 9
 1054.88769531 -25.7314453125 l 17
 1001.1796875 72.673828125 859.51171875 95.2529296875 723.688476562 214.268554688 c 1
 681.40234375 197.809570312 642.827148438 192.481445312 613.2890625 214.268554688 c 1
 613.286132812 277.076171875 613.284179688 340.502929688 613.2890625 415.869140625 c 1
 703.846679688 391.090820312 756.838867188 448.268554688 836.21875 476.232421875 c 0
 916.975585938 504.677734375 959.754882812 562.392578125 1016.48828125 612.668945312 c 9
 1021.2890625 780.668945312 l 25
EndSplineSet
EndChar

StartChar: r
Encoding: 114 114 45
Width: 1500
VWidth: 2055
Flags: HW
LayerCount: 2
Fore
SplineSet
740.97265625 438.251953125 m 1
 646.567382812 390.259765625 587.3671875 329.4609375 563.372070312 255.852539062 c 1
 585.998046875 209.454101562 592.630859375 163.051757812 644.97265625 116.653320312 c 1
 714.817382812 112.666015625 769.73046875 141.673828125 827.372070312 164.653320312 c 1
 837.951171875 213.2578125 846.306640625 223.844726562 860.97265625 342.251953125 c 9
 817.771484375 409.453125 l 25
 779.372070312 332.653320312 l 25
 740.97265625 438.251953125 l 1
1057.77148438 606.251953125 m 17
 979.223632812 702.251953125 873.016601562 717.107421875 769.771484375 740.653320312 c 1
 639.8515625 676.625976562 522.38671875 564.731445312 404.97265625 452.653320312 c 1
 408.864257812 407.193359375 404.61328125 370.165039062 419.372070312 313.453125 c 1
 366.571289062 255.852539062 l 17
 363.376953125 182.251953125 348.48828125 108.653320312 385.771484375 35.052734375 c 1
 449.017578125 -76.40625 513.313476562 -186.408203125 664.171875 -176.147460938 c 1
 745.326171875 -193.061523438 825.06640625 -219.64453125 918.571289062 -152.147460938 c 1
 918.571289062 -152.147460938 1037.56835938 -21.7646484375 1033.01953125 -11.1982421875 c 0
 1028.99316406 -1.8427734375 1115.37207031 116.653320312 1122.046875 125.235351562 c 0
 1158.14257812 171.641601562 1144.171875 371.052734375 1158.57128906 327.852539062 c 1
 1110.57128906 409.453125 l 25
 1057.77148438 606.251953125 l 17
476.97265625 654.251953125 m 9
 476.97265625 654.251953125 831.149414062 830.165039062 888.3125 844.985351562 c 0
 985.771484375 870.251953125 1206.57128906 683.052734375 1237.98535156 569.970703125 c 0
 1260.31835938 489.568359375 1206.57128906 375.852539062 1216.34960938 375.852539062 c 8
 1225.77148438 375.852539062 1230.57128906 270.251953125 1230.57128906 270.251953125 c 9
 1240.171875 179.052734375 l 2
 1259.37207031 -12.947265625 1181.22851562 -121.880859375 1112.91992188 -170.49609375 c 0
 980.8125 -264.521484375 651.665039062 -299.361328125 640.171875 -252.947265625 c 1
 495.688476562 -219.952148438 370.493164062 -151.983398438 289.771484375 -3.3466796875 c 1
 238.150390625 -12.0263671875 256.9921875 333.3046875 277.5 375.813476562 c 0
 289.75390625 401.208984375 467.861328125 661.036132812 476.97265625 654.251953125 c 9
EndSplineSet
EndChar

StartChar: t
Encoding: 116 116 46
Width: 1500
VWidth: 2048
Flags: HW
LayerCount: 2
Fore
SplineSet
872.563476562 803.25390625 m 0
 862.5390625 819.1328125 827.602539062 827.327148438 785.520507812 827.327148438 c 0
 735.625 827.327148438 717.581054688 815.807617188 681.817382812 759.393554688 c 0
 615.340820312 654.52734375 630.241210938 619.471679688 746.047851562 639.440429688 c 0
 774.803710938 644.397460938 828.65625 656.001953125 841.547851562 659.9453125 c 0
 900.235351562 677.897460938 1009.19238281 610.366210938 1033.8515625 546.25 c 0
 1043.16015625 522.046875 1063.11035156 500.927734375 1078.39550781 500.927734375 c 0
 1111.31347656 500.927734375 1147.28417969 403.0078125 1147.28417969 335.62890625 c 0
 1147.28417969 232.127929688 1062.40527344 55.703125 969.698242188 -38.427734375 c 0
 914.66015625 -94.314453125 865.043945312 -112.883789062 722.731445312 -118.6953125 c 0
 630.803710938 -122.446289062 608.55859375 -116.451171875 567.23828125 -76.7197265625 c 0
 538.64453125 -49.2265625 508.512695312 -27.62890625 496.747070312 -28.5517578125 c 0
 473.918945312 -30.341796875 417.68359375 55.48828125 417.68359375 109.08984375 c 0
 417.68359375 156.061523438 374.497070312 202.20703125 371.54296875 258.22265625 c 0
 366.782226562 348.46875 264.083007812 289.7265625 264.083007812 214.08203125 c 0
 264.083007812 118.846679688 426.875976562 -197.1640625 484.348632812 -228.067382812 c 0
 527.122070312 -251.067382812 755.399414062 -247.270507812 792.911132812 -223.98828125 c 0
 824.3203125 -204.494140625 974.03125 -208.23046875 1200.05078125 75.361328125 c 0
 1201.04394531 76.6083984375 1201.04394531 76.6083984375 1201.61425781 80.2451171875 c 0
 1244.4140625 353.088867188 1242.90625 381.408203125 1220.31542969 440.552734375 c 0
 1115.80957031 714.170898438 897.6953125 763.45703125 872.563476562 803.25390625 c 0
798.71484375 423.647460938 m 0
 778.64453125 432.80859375 739.391601562 443.327148438 724.8515625 443.327148438 c 0
 677.953125 443.327148438 571.284179688 333.888671875 571.284179688 291.99609375 c 0
 571.284179688 255.572265625 651.922851562 182.315429688 700.450195312 169.670898438 c 0
 759.4453125 154.30078125 870.833007812 202.48828125 889.719726562 251.7578125 c 0
 907.377929688 297.8203125 863.122070312 394.2421875 798.71484375 423.647460938 c 0
EndSplineSet
EndChar

StartChar: u
Encoding: 117 117 47
Width: 1500
VWidth: 2000
Flags: HW
LayerCount: 2
Fore
SplineSet
495.51953125 -145.813476562 m 1
 509.083007812 -194.5078125 529.096679688 -195.219726562 549.586914062 -192.376953125 c 1
 623.30078125 -96.767578125 698.657226562 -14.5830078125 776.390625 48.2138671875 c 1
 878.590820312 49.716796875 991.6875 76.921875 1084.81347656 57.0185546875 c 1
 1112.81347656 57.791015625 1115.59082031 84.9677734375 1116.50097656 114.099609375 c 9
 1085.66894531 168.349609375 l 1
 1116.9140625 250.131835938 1104.22265625 342.041992188 1072.59375 432.721679688 c 9
 1140.64550781 508.772460938 l 17
 1159.04003906 515.494140625 1158.44921875 564.518554688 1117.65917969 569.077148438 c 0
 1087.55957031 572.443359375 985.090820312 557.23828125 999.6484375 554.350585938 c 5
 732.4453125 603.794921875 454.250976562 663.982421875 428.211914062 801.056640625 c 12
 414.375976562 873.897460938 344.350585938 845.9765625 347.879882812 788.6484375 c 16
 351.124023438 735.967773438 416.719726562 654.545898438 474.6328125 596.362304688 c 9
 1032.14160156 447.108398438 l 25
 1037.35546875 384.87890625 l 25
 1037.35546875 384.87890625 843.7734375 346.634765625 786 323.748046875 c 0
 708.69140625 293.119140625 726.26171875 231.237304688 796.729492188 227.315429688 c 0
 851.5234375 224.267578125 1017.39550781 251.859375 1017.39550781 251.859375 c 17
 1035.17089844 223.131835938 1046.3828125 196.163085938 1031.5078125 176.21484375 c 9
 920.760742188 172.307617188 l 18
 856.55859375 170.794921875 805.515625 152.365234375 779.493164062 101.7890625 c 1
 659.469726562 43.1982421875 543.92578125 -19.6220703125 495.51953125 -145.813476562 c 1
EndSplineSet
EndChar

StartChar: v
Encoding: 118 118 48
Width: 1500
VWidth: 2018
Flags: HW
LayerCount: 2
Fore
SplineSet
1295.37890625 188.01953125 m 0
 1271.15234375 779.857421875 787.734375 865.931640625 571.54296875 767.474609375 c 0
 461.4609375 717.341796875 300.180664062 564.49609375 300.180664062 522.42578125 c 0
 300.180664062 507.150390625 278.9140625 473.014648438 248.390625 439.94921875 c 0
 200.522460938 388.091796875 194.219726562 353.975585938 215.428710938 314.3125 c 0
 274.579101562 203.685546875 415.950195312 296.376953125 388.645507812 405.34375 c 0
 378.78515625 444.6953125 394.116210938 469.17578125 464.203125 539.8515625 c 0
 554.053710938 630.456054688 621.01171875 683.151367188 722.12890625 688.717773438 c 0
 776.340820312 691.701171875 838.79296875 681.05078125 943.828125 625.3046875 c 0
 1104.66113281 539.948242188 1160.34082031 457.65625 1166.625 281.725585938 c 0
 1169.52246094 200.580078125 1159.23535156 174.456054688 1096.54980469 90.126953125 c 0
 1026.50097656 -4.103515625 997.19140625 -28.1962890625 951.28125 -28.56640625 c 0
 887.700195312 -29.0791015625 754.8984375 -75.9072265625 740.28125 -118.677734375 c 0
 724.315429688 -165.396484375 844.8984375 -220.30859375 1046.54785156 -117.2421875 c 0
 1058.58105469 -111.091796875 1131.11425781 -73.6015625 1146.55078125 -65.521484375 c 0
 1276.38574219 2.4296875 1301.08300781 48.6953125 1295.37890625 188.01953125 c 0
895.379882812 284.720703125 m 0
 895.379882812 317.96875 847.875 452.694335938 738.448242188 449.7109375 c 0
 666.899414062 447.759765625 607.379882812 387.983398438 607.379882812 311.284179688 c 0
 607.379882812 183.736328125 771.989257812 106.295898438 786.145507812 106.295898438 c 0
 804.661132812 106.295898438 895.379882812 238.776367188 895.379882812 284.720703125 c 0
EndSplineSet
EndChar

StartChar: x
Encoding: 120 120 49
Width: 1500
VWidth: 2076
Flags: HW
LayerCount: 2
Fore
SplineSet
1104.8125 699.029296875 m 0
 1104.8125 748.245117188 1020.08300781 809.126953125 938.9296875 818.548828125 c 0
 834.09375 830.721679688 585.83203125 774.373046875 491.356445312 715.840820312 c 0
 417.3671875 669.997070312 320.875 550.426757812 288.915039062 461.030273438 c 0
 252.234375 358.426757812 253.770507812 164.692382812 287.37890625 83.177734375 c 0
 322.71484375 -2.533203125 482.948242188 -181.092773438 521.106445312 -181.092773438 c 0
 534.188476562 -181.092773438 569.1328125 -202.081054688 596.6484375 -225.221679688 c 0
 695.118164062 -308.024414062 797.61328125 -286.693359375 797.61328125 -194.780273438 c 0
 797.61328125 -129.416015625 745.7734375 -82.267578125 630.2109375 -88.8076171875 c 0
 597.31640625 -90.6708984375 590.250976562 -87.013671875 510.008789062 -6.7705078125 c 0
 393.864257812 109.374023438 386.18359375 124.186523438 379.848632812 212.869140625 c 0
 372.348632812 317.892578125 379.565429688 346.907226562 418.7265625 420.336914062 c 0
 513.9765625 598.930664062 592.172851562 653.967773438 793.88671875 675.841796875 c 0
 853.29296875 682.283203125 864.325195312 679.439453125 925.046875 639.521484375 c 0
 1033.7734375 568.043945312 1069.73535156 530.267578125 1083.29003906 463.725585938 c 0
 1093.21875 414.994140625 1124.01269531 338.250976562 1124.01269531 302.942382812 c 0
 1124.01269531 254.745117188 1181.39453125 248.768554688 1212.82910156 280.204101562 c 0
 1291.28417969 358.661132812 1166.53222656 628.596679688 1125.9765625 652.927734375 c 0
 1113.90625 660.169921875 1104.8125 682.907226562 1104.8125 699.029296875 c 0
892.5625 358.822265625 m 0
 783.33203125 441.802734375 660.33203125 421.787109375 620.188476562 346.852539062 c 0
 578.915039062 269.806640625 634.413085938 151.845703125 736.9140625 124.142578125 c 0
 788.012695312 110.330078125 831.53125 124.157226562 894.703125 204.232421875 c 0
 923.948242188 241.306640625 951.211914062 284.728515625 951.211914062 295.116210938 c 0
 951.211914062 305.794921875 922.413085938 336.146484375 892.5625 358.822265625 c 0
EndSplineSet
EndChar

StartChar: y
Encoding: 121 121 50
Width: 1500
VWidth: 1980
Flags: HW
LayerCount: 2
Fore
SplineSet
664.977539062 -38.30078125 m 0
 664.977539062 -53.599609375 799.37890625 -95.9814453125 799.37890625 -124.390625 c 0
 799.37890625 -151.8203125 924.665039062 -234.614257812 902.75 -318.1796875 c 0
 893.891601562 -351.9453125 916.497070312 -357.28515625 965.5546875 -326.15234375 c 0
 1096.57519531 -243.004882812 1085.45800781 -109.6484375 947.65625 -6.9541015625 c 0
 918.41796875 14.8349609375 875.469726562 52.47265625 864.653320312 66.4443359375 c 0
 850.004882812 85.3662109375 807.05859375 108.127929688 606.567382812 166.170898438 c 0
 564.090820312 178.466796875 533.96484375 187.6484375 545.442382812 219.784179688 c 0
 551.301757812 236.190429688 560.33984375 237.116210938 576.032226562 224.127929688 c 0
 627.881835938 181.217773438 666.78125 240.7578125 747.377929688 240.7578125 c 0
 785.66796875 240.7578125 798.05859375 254.198242188 807.196289062 302.93359375 c 0
 821.7265625 380.427734375 799.37890625 394.358398438 666.196289062 394.358398438 c 0
 574.739257812 394.358398438 549.778320312 400.928710938 549.778320312 425.404296875 c 0
 549.778320312 438.51953125 556.9453125 452.713867188 609.741210938 458.26953125 c 0
 709.774414062 468.803710938 820.9921875 528.7578125 857.94921875 528.7578125 c 0
 891.014648438 528.7578125 951.672851562 576.7578125 1009.36425781 636.065429688 c 0
 1132.84472656 762.998046875 1154.65136719 851.171875 1079.953125 971.755859375 c 0
 1064.16796875 997.23828125 1041.72363281 1027.95898438 1030.48828125 1027.95898438 c 0
 1008.01953125 1027.95898438 907.93359375 905.078125 897.413085938 833.913085938 c 0
 897.1484375 832.120117188 891.137695312 791.11328125 890.891601562 789.4140625 c 0
 882.91015625 734.198242188 785.348632812 645.55859375 744.778320312 644.491210938 c 0
 711.899414062 643.625 566.838867188 583.284179688 457.122070312 579.90625 c 0
 421.977539062 578.823242188 416.55078125 572.919921875 409.40234375 517.9296875 c 0
 380.09765625 292.487304688 465.43359375 346.041992188 409.118164062 187.337890625 c 0
 390.9453125 136.120117188 376.977539062 77.2890625 376.977539062 50.0146484375 c 0
 376.977539062 6.51953125 412.497070312 -4.041015625 433.06640625 16.52734375 c 0
 482.75390625 66.21484375 664.977539062 -20.482421875 664.977539062 -38.30078125 c 0
EndSplineSet
EndChar

StartChar: z
Encoding: 122 122 51
Width: 1500
VWidth: 2009
Flags: HW
LayerCount: 2
Fore
SplineSet
699.608398438 807.71484375 m 0
 686.969726562 807.71484375 656.958007812 812.02734375 649.772460938 814.461914062 c 0
 615.836914062 825.956054688 439.2890625 755.235351562 394.73046875 718.1015625 c 0
 378.27734375 704.390625 343.2890625 685.647460938 319.104492188 676.424804688 c 0
 198.315429688 630.360351562 170.703125 485.153320312 234.44140625 231.952148438 c 0
 271.23046875 85.7958984375 306.811523438 29.3818359375 413.495117188 -57.3515625 c 0
 498.171875 -126.196289062 542.969726562 -145.30078125 648.051757812 -163.034179688 c 0
 784.889648438 -186.125 856.206054688 -178.58203125 931.077148438 -146.68359375 c 0
 1059.45019531 -91.9921875 1181.50683594 27.1611328125 1216.5703125 111.90234375 c 0
 1228.80761719 141.475585938 1253.37011719 179.422851562 1271.4609375 194.323242188 c 0
 1313.68359375 229.09375 1307.13183594 320.2265625 1251.3359375 359.28515625 c 0
 1184.6796875 405.94140625 1098.05175781 343.075195312 1107.76074219 259.2421875 c 0
 1116.28125 185.633789062 1056 81.01171875 998.448242188 54.4990234375 c 0
 974.969726562 43.6845703125 949.125 18.9931640625 942.26953125 -2.7216796875 c 0
 920.817382812 -70.6484375 742.651367188 -75.59765625 559.01953125 11.4912109375 c 0
 425.850585938 74.6484375 368.52734375 148.877929688 345.063476562 361.28125 c 0
 338.166992188 423.71484375 341.19140625 434.74609375 379.795898438 490.3359375 c 0
 449.530273438 590.75390625 499.024414062 640.249023438 677.604492188 675.09375 c 0
 678.327148438 675.234375 678.327148438 675.234375 678.327148438 675.234375 c 0
 802.6171875 675.234375 769.640625 807.71484375 699.608398438 807.71484375 c 0
762.262695312 511.4453125 m 0
 731.131835938 532.48046875 724.303710938 531.916992188 699.795898438 506.000976562 c 0
 576.577148438 375.71484375 598.651367188 230.91015625 684.413085938 185.0390625 c 0
 819.80859375 112.620117188 1021.89453125 336.020507812 762.262695312 511.4453125 c 0
EndSplineSet
EndChar

